<svg width="1282" height="877" viewBox="0 0 1282 877" fill="none" xmlns="http://www.w3.org/2000/svg">
<mask id="mask0" mask-type="alpha" maskUnits="userSpaceOnUse" x="0" y="0" width="1440" height="877">
<rect x="1440" width="1440" height="877" transform="scale(-1 1)" fill="#EDEFF6"/>
</mask>
<g mask="url(#mask0)">
<path d="M380.378 56.5963C379.271 56.5329 378.425 55.5782 378.488 54.4637C378.552 53.3493 379.502 52.4972 380.609 52.5606C381.716 52.6239 382.562 53.5788 382.499 54.6932C382.435 55.8077 381.485 56.6597 380.378 56.5963Z" fill="white"/>
<path d="M277.54 30.4561C274.954 30.3082 272.979 28.0789 273.128 25.4769C273.277 22.8748 275.494 20.8854 278.079 21.0334C280.664 21.1813 282.64 23.4106 282.491 26.0126C282.342 28.6147 280.125 30.6041 277.54 30.4561Z" fill="white"/>
<path d="M595.067 115.475C593.959 115.412 593.113 114.457 593.177 113.343C593.241 112.228 594.19 111.376 595.298 111.439C596.405 111.503 597.251 112.458 597.187 113.572C597.123 114.687 596.174 115.539 595.067 115.475Z" fill="white"/>
<path d="M171.373 62.5303C169.527 62.4247 168.117 60.8329 168.223 58.9751C168.329 57.1172 169.912 55.6967 171.758 55.8024C173.604 55.908 175.014 57.4997 174.908 59.3576C174.802 61.2155 173.219 62.6359 171.373 62.5303Z" fill="white"/>
<path d="M308.073 118.299C304.749 118.109 302.21 115.243 302.401 111.897C302.593 108.552 305.443 105.994 308.767 106.184C312.091 106.375 314.63 109.241 314.439 112.586C314.247 115.932 311.397 118.49 308.073 118.299Z" fill="white"/>
<path d="M293.463 637.413C291.432 637.297 289.88 635.545 289.997 633.501C290.114 631.456 291.855 629.893 293.887 630.009C295.918 630.125 297.47 631.877 297.353 633.922C297.236 635.966 295.494 637.529 293.463 637.413Z" fill="white"/>
<path d="M319.609 690.564C318.132 690.479 317.004 689.206 317.089 687.72C317.174 686.233 318.44 685.097 319.917 685.181C321.394 685.266 322.522 686.539 322.437 688.026C322.352 689.512 321.086 690.648 319.609 690.564Z" fill="white"/>
<path d="M110.798 65.8192C108.582 65.6924 106.889 63.7815 107.017 61.5512C107.144 59.3209 109.044 57.6157 111.26 57.7425C113.476 57.8694 115.169 59.7801 115.042 62.0104C114.914 64.2407 113.014 65.946 110.798 65.8192Z" fill="white"/>
<path d="M141.508 168.188C140.216 168.114 139.229 167 139.303 165.7C139.377 164.399 140.485 163.405 141.778 163.479C143.07 163.553 144.057 164.667 143.982 165.968C143.908 167.268 142.8 168.262 141.508 168.188Z" fill="white"/>
<path d="M151.008 201.484C148.976 201.368 147.424 199.616 147.541 197.572C147.658 195.527 149.4 193.964 151.431 194.081C153.463 194.197 155.015 195.948 154.898 197.993C154.781 200.037 153.039 201.6 151.008 201.484Z" fill="white"/>
<path d="M129.171 342.714C126.955 342.587 125.262 340.677 125.39 338.446C125.517 336.216 127.417 334.511 129.633 334.638C131.849 334.764 133.543 336.675 133.415 338.906C133.287 341.136 131.387 342.841 129.171 342.714Z" fill="white"/>
<path d="M112.056 290.074C110.949 290.011 110.103 289.056 110.167 287.942C110.23 286.827 111.18 285.975 112.287 286.039C113.395 286.102 114.241 287.057 114.177 288.171C114.113 289.286 113.164 290.138 112.056 290.074Z" fill="white"/>
<path d="M98.8025 228.545C95.2937 228.344 92.6131 225.319 92.8152 221.787C93.0173 218.256 96.0255 215.556 99.5343 215.757C103.043 215.958 105.724 218.983 105.522 222.515C105.319 226.046 102.311 228.746 98.8025 228.545Z" fill="white"/>
<path d="M79.5363 154.853C76.9509 154.705 74.9757 152.475 75.1246 149.873C75.2735 147.271 77.4901 145.282 80.0755 145.43C82.661 145.578 84.6361 147.807 84.4872 150.409C84.3383 153.011 82.1217 155.001 79.5363 154.853Z" fill="white"/>
<path d="M147.384 165.15C144.614 164.992 142.498 162.603 142.657 159.815C142.817 157.027 145.192 154.896 147.962 155.054C150.732 155.213 152.848 157.601 152.688 160.389C152.529 163.177 150.154 165.309 147.384 165.15Z" fill="white"/>
<path d="M123.099 38.4972C121.437 38.4021 120.168 36.9696 120.264 35.2975C120.359 33.6254 121.784 32.347 123.445 32.4421C125.107 32.5372 126.376 33.9697 126.28 35.6418C126.184 37.3139 124.76 38.5923 123.099 38.4972Z" fill="white"/>
<path d="M1172.2 887.238C1168.88 887.048 1166.34 884.182 1166.53 880.836C1166.72 877.491 1169.57 874.933 1172.89 875.123C1176.22 875.314 1178.76 878.18 1178.56 881.525C1178.37 884.871 1175.52 887.429 1172.2 887.238Z" fill="white"/>
<path d="M377.342 179.996C375.865 179.911 374.737 178.638 374.822 177.152C374.907 175.665 376.173 174.529 377.65 174.614C379.127 174.698 380.255 175.972 380.17 177.458C380.085 178.944 378.819 180.08 377.342 179.996Z" fill="white"/>
<path d="M202.356 664.271C200.51 664.165 199.099 662.574 199.206 660.716C199.312 658.858 200.895 657.437 202.741 657.543C204.587 657.649 205.997 659.24 205.891 661.098C205.784 662.956 204.202 664.377 202.356 664.271Z" fill="white"/>
<path d="M287.708 691.102C286.969 691.06 286.405 690.424 286.448 689.681C286.49 688.938 287.123 688.37 287.862 688.412C288.6 688.454 289.164 689.091 289.121 689.834C289.079 690.576 288.446 691.145 287.708 691.102Z" fill="white"/>
<path d="M250.027 112.612C248.366 112.516 247.097 111.084 247.192 109.412C247.288 107.74 248.712 106.461 250.374 106.556C252.035 106.651 253.305 108.084 253.209 109.756C253.113 111.428 251.689 112.707 250.027 112.612Z" fill="white"/>
<path d="M276.114 166.775C274.453 166.68 273.184 165.247 273.279 163.575C273.375 161.903 274.799 160.624 276.461 160.719C278.122 160.815 279.391 162.247 279.296 163.919C279.2 165.591 277.776 166.87 276.114 166.775Z" fill="white"/>
<path d="M186.222 225.108C184.191 224.991 182.639 223.24 182.756 221.195C182.873 219.151 184.614 217.588 186.646 217.704C188.677 217.82 190.229 219.572 190.112 221.616C189.995 223.661 188.253 225.224 186.222 225.108Z" fill="white"/>
<path d="M244.232 166.977C243.678 166.945 243.255 166.468 243.287 165.911C243.319 165.354 243.794 164.928 244.347 164.959C244.901 164.991 245.324 165.468 245.292 166.026C245.26 166.583 244.785 167.009 244.232 166.977Z" fill="white"/>
<path d="M559.788 226.328C559.537 225.051 560.362 223.809 561.631 223.555C562.901 223.301 564.134 224.13 564.386 225.408C564.638 226.686 563.812 227.927 562.543 228.181C561.273 228.436 560.04 227.606 559.788 226.328Z" fill="white"/>
<path d="M550.511 194.908C550.332 193.995 550.921 193.109 551.828 192.927C552.734 192.746 553.615 193.338 553.795 194.25C553.974 195.163 553.385 196.049 552.478 196.231C551.572 196.413 550.691 195.82 550.511 194.908Z" fill="white"/>
<path d="M75.6618 251.868L112.17 288.058L99.1682 222.152L75.6618 251.868Z" stroke="white" stroke-miterlimit="10" stroke-linecap="round" stroke-linejoin="round"/>
<path d="M147.672 160.102L79.8057 150.141L151.219 197.782L147.672 160.102Z" stroke="white" stroke-miterlimit="10" stroke-linecap="round" stroke-linejoin="round"/>
<path d="M99.1681 222.151L147.672 160.102L151.219 197.782L99.1681 222.151Z" stroke="white" stroke-miterlimit="10" stroke-linecap="round" stroke-linejoin="round"/>
<path d="M309.582 162.277L308.42 112.242L276.286 163.748L309.582 162.277Z" stroke="white" stroke-miterlimit="10" stroke-linecap="round" stroke-linejoin="round"/>
<path d="M250.2 109.585L308.42 112.242L309.582 162.277L250.2 109.585Z" stroke="white" stroke-miterlimit="10" stroke-linecap="round" stroke-linejoin="round"/>
<path d="M365.676 -79.2938L380.492 54.5802L277.809 25.7453L365.676 -79.2938Z" stroke="white" stroke-miterlimit="10" stroke-linecap="round" stroke-linejoin="round"/>
<path d="M111.03 61.7806L123.27 35.4707L171.565 59.1675L111.03 61.7806Z" stroke="white" stroke-miterlimit="10" stroke-linecap="round" stroke-linejoin="round"/>
<path d="M111.029 61.7808L79.8058 150.141L-35.9488 62.4859L111.029 61.7808Z" stroke="white" stroke-miterlimit="10" stroke-linecap="round" stroke-linejoin="round"/>
<path d="M-31.5495 138.029L111.029 61.7808L-35.9488 62.4859L-31.5495 138.029Z" stroke="white" stroke-miterlimit="10" stroke-linecap="round" stroke-linejoin="round"/>
<path d="M75.6618 251.868L79.8059 150.141L-38.9691 279.409L75.6618 251.868Z" stroke="white" stroke-miterlimit="10" stroke-linecap="round" stroke-linejoin="round"/>
<path d="M129.402 338.676L-21.7669 353.997L-7.50436 485.813L129.402 338.676Z" stroke="white" stroke-miterlimit="10" stroke-linecap="round" stroke-linejoin="round"/>
<path d="M123.27 35.4709L149.299 -167.305L328.439 -261.044L123.27 35.4709Z" stroke="white" stroke-miterlimit="10" stroke-linecap="round" stroke-linejoin="round"/>
<path d="M-55.8644 -11.582L123.27 35.4707L149.3 -167.306L-55.8644 -11.582Z" stroke="white" stroke-miterlimit="10" stroke-linecap="round" stroke-linejoin="round"/>
<path d="M-83.0416 -169.797L123.27 35.4707L149.3 -167.306L-83.0416 -169.797Z" stroke="white" stroke-miterlimit="10" stroke-linecap="round" stroke-linejoin="round"/>
<path d="M202.547 660.909L293.675 633.711L319.762 687.874L202.547 660.909Z" stroke="white" stroke-miterlimit="10" stroke-linecap="round" stroke-linejoin="round"/>
<path d="M75.6618 251.868L-7.50449 485.813L129.402 338.676L75.6618 251.868Z" stroke="white" stroke-miterlimit="10" stroke-linecap="round" stroke-linejoin="round"/>
<path d="M112.171 288.058L129.402 338.676L-21.7668 353.997L112.171 288.058Z" stroke="white" stroke-miterlimit="10" stroke-linecap="round" stroke-linejoin="round"/>
<path d="M171.564 59.1678L147.672 160.102L247.524 109.432L171.564 59.1678Z" stroke="white" stroke-miterlimit="10" stroke-linecap="round" stroke-linejoin="round"/>
</g>
</svg>
