<svg width="1440" height="877" viewBox="0 0 1440 877" fill="none" xmlns="http://www.w3.org/2000/svg">
<g opacity="0.8">
<mask id="mask0" mask-type="alpha" maskUnits="userSpaceOnUse" x="0" y="0" width="1440" height="877">
<rect width="1440" height="877" fill="#EDEFF6"/>
</mask>
<g mask="url(#mask0)">
<path d="M1417.77 39.9295C1413.61 39.0479 1409.51 41.7289 1408.63 45.9178C1407.74 50.1066 1410.4 54.217 1414.56 55.0986C1418.72 55.9802 1422.81 53.2991 1423.7 49.1102C1424.59 44.9214 1421.93 40.8111 1417.77 39.9295Z" fill="white"/>
<path d="M1411.24 104.701C1408.53 104.126 1405.86 105.875 1405.28 108.607C1404.7 111.339 1406.43 114.019 1409.14 114.594C1411.86 115.169 1414.53 113.421 1415.11 110.689C1415.69 107.957 1413.95 105.276 1411.24 104.701Z" fill="white"/>
<path d="M1419.92 172.006C1417.93 171.585 1415.97 172.867 1415.55 174.87C1415.13 176.874 1416.4 178.839 1418.39 179.261C1420.38 179.683 1422.33 178.4 1422.76 176.397C1423.18 174.394 1421.91 172.428 1419.92 172.006Z" fill="white"/>
<path d="M1428.46 235.146C1426.29 234.686 1424.15 236.084 1423.69 238.27C1423.23 240.455 1424.61 242.6 1426.78 243.06C1428.95 243.52 1431.09 242.121 1431.55 239.935C1432.02 237.75 1430.63 235.605 1428.46 235.146Z" fill="white"/>
<path d="M1248.73 168.823C1246.38 168.325 1244.07 169.84 1243.57 172.208C1243.06 174.576 1244.56 176.899 1246.92 177.397C1249.27 177.895 1251.58 176.38 1252.08 174.012C1252.59 171.645 1251.09 169.322 1248.73 168.823Z" fill="white"/>
<path d="M1156.67 776.418C1155.95 776.265 1155.23 776.731 1155.08 777.459C1154.93 778.187 1155.39 778.901 1156.11 779.055C1156.83 779.208 1157.55 778.742 1157.7 778.014C1157.85 777.286 1157.39 776.571 1156.67 776.418Z" fill="white"/>
<path d="M1145.12 121.382C1144.4 121.228 1143.69 121.694 1143.53 122.422C1143.38 123.15 1143.84 123.865 1144.56 124.018C1145.29 124.171 1146 123.705 1146.15 122.977C1146.31 122.249 1145.84 121.535 1145.12 121.382Z" fill="white"/>
<path d="M1166.43 4.60908C1163.71 4.03414 1161.05 5.78264 1160.47 8.51448C1159.89 11.2463 1161.62 13.927 1164.33 14.5019C1167.05 15.0769 1169.72 13.3284 1170.3 10.5965C1170.87 7.8647 1169.14 5.18402 1166.43 4.60908Z" fill="white"/>
<path d="M1058.27 62.6703C1055.01 61.9804 1051.81 64.0786 1051.12 67.3568C1050.42 70.6351 1052.5 73.8518 1055.76 74.5417C1059.01 75.2317 1062.22 73.1335 1062.91 69.8553C1063.61 66.5771 1061.53 63.3602 1058.27 62.6703Z" fill="white"/>
<path d="M1336.72 42.746C1333.64 42.0944 1330.62 44.076 1329.96 47.1721C1329.31 50.2682 1331.27 53.3063 1334.34 53.9579C1337.42 54.6095 1340.45 52.6279 1341.1 49.5318C1341.76 46.4357 1339.8 43.3976 1336.72 42.746Z" fill="white"/>
<path d="M1413.29 93.4226C1412.2 93.1928 1411.14 93.8918 1410.91 94.9838C1410.67 96.0758 1411.37 97.1475 1412.45 97.3773C1413.54 97.6072 1414.6 96.9082 1414.83 95.8161C1415.07 94.7241 1414.37 93.6525 1413.29 93.4226Z" fill="white"/>
<path d="M1364.76 201.323C1362.4 200.825 1360.09 202.34 1359.59 204.708C1359.09 207.076 1360.59 209.399 1362.94 209.897C1365.29 210.395 1367.61 208.88 1368.11 206.512C1368.61 204.145 1367.11 201.822 1364.76 201.323Z" fill="white"/>
<path d="M1330.34 158.546C1329.61 158.392 1328.9 158.858 1328.75 159.586C1328.59 160.314 1329.06 161.029 1329.78 161.182C1330.5 161.335 1331.21 160.869 1331.37 160.141C1331.52 159.413 1331.06 158.699 1330.34 158.546Z" fill="white"/>
<path d="M1152.59 107.115C1151.69 106.923 1150.8 107.506 1150.61 108.416C1150.41 109.326 1150.99 110.219 1151.89 110.411C1152.8 110.602 1153.69 110.02 1153.88 109.11C1154.07 108.2 1153.5 107.307 1152.59 107.115Z" fill="white"/>
<path d="M1128.46 14.1401C1126.29 13.6802 1124.16 15.079 1123.69 17.2645C1123.23 19.45 1124.61 21.5944 1126.79 22.0544C1128.96 22.5143 1131.09 21.1156 1131.56 18.9301C1132.02 16.7447 1130.63 14.6001 1128.46 14.1401Z" fill="white"/>
<path d="M1200.51 173.426C1197.08 172.698 1193.69 174.912 1192.96 178.373C1192.23 181.833 1194.42 185.228 1197.86 185.957C1201.3 186.685 1204.68 184.47 1205.41 181.01C1206.14 177.55 1203.95 174.154 1200.51 173.426Z" fill="white"/>
<path d="M1222.84 137.498C1220.67 137.038 1218.54 138.437 1218.07 140.622C1217.61 142.808 1219 144.952 1221.17 145.412C1223.34 145.872 1225.48 144.474 1225.94 142.288C1226.4 140.103 1225.02 137.958 1222.84 137.498Z" fill="white"/>
<path d="M1193.51 280.825C1192.07 280.519 1190.64 281.451 1190.33 282.907C1190.03 284.364 1190.95 285.793 1192.4 286.099C1193.84 286.406 1195.27 285.474 1195.58 284.017C1195.88 282.561 1194.96 281.132 1193.51 280.825Z" fill="white"/>
<path d="M1221.83 223.079C1219.12 222.504 1216.45 224.252 1215.87 226.984C1215.29 229.716 1217.02 232.397 1219.74 232.972C1222.45 233.547 1225.12 231.798 1225.7 229.066C1226.28 226.334 1224.55 223.654 1221.83 223.079Z" fill="white"/>
<path d="M791.799 34.1393C790.533 33.8711 789.288 34.6868 789.018 35.9611C788.748 37.2355 789.556 38.4859 790.822 38.7541C792.088 39.0223 793.333 38.2067 793.603 36.9324C793.873 35.658 793.065 34.4075 791.799 34.1393Z" fill="white"/>
<path d="M986.875 25.6892C985.239 26.9109 984.894 29.2328 986.104 30.8755C987.315 32.5182 989.622 32.8595 991.258 31.6379C992.895 30.4162 993.24 28.0942 992.03 26.4515C990.819 24.8088 988.512 24.4675 986.875 25.6892Z" fill="white"/>
<path d="M945.172 1.85833C943.238 3.30212 942.83 6.04627 944.26 7.98765C945.691 9.92902 948.418 10.3324 950.351 8.8886C952.285 7.44481 952.693 4.70065 951.263 2.75928C949.833 0.81791 947.106 0.414546 945.172 1.85833Z" fill="white"/>
<path d="M1006.07 41.5043C1003.54 43.3924 1003.01 46.981 1004.88 49.5197C1006.75 52.0584 1010.31 52.5859 1012.84 50.6979C1015.37 48.8099 1015.9 45.2212 1014.03 42.6825C1012.16 40.1438 1008.6 39.6163 1006.07 41.5043Z" fill="white"/>
<path d="M971.822 39.7296C970.186 40.9513 969.84 43.2734 971.05 44.9161C972.261 46.5588 974.568 46.8999 976.205 45.6783C977.841 44.4566 978.186 42.1347 976.976 40.492C975.766 38.8493 973.458 38.5079 971.822 39.7296Z" fill="white"/>
<path d="M619.383 264.651C617.936 264.345 616.513 265.277 616.204 266.733C615.896 268.19 616.819 269.619 618.266 269.925C619.713 270.232 621.136 269.3 621.445 267.843C621.753 266.387 620.83 264.958 619.383 264.651Z" fill="white"/>
<path d="M1421.47 106.526C1420.38 106.296 1419.32 106.995 1419.08 108.087C1418.85 109.179 1419.55 110.251 1420.63 110.48C1421.72 110.71 1422.78 110.011 1423.01 108.919C1423.25 107.827 1422.55 106.756 1421.47 106.526Z" fill="white"/>
<path d="M1341.92 73.1379C1341.02 72.9464 1340.13 73.5289 1339.94 74.4389C1339.74 75.349 1340.32 76.242 1341.23 76.4335C1342.13 76.625 1343.02 76.0425 1343.21 75.1325C1343.4 74.2225 1342.83 73.3295 1341.92 73.1379Z" fill="white"/>
<path d="M1317.87 204.485C1315.88 204.064 1313.92 205.346 1313.5 207.349C1313.07 209.353 1314.34 211.318 1316.33 211.74C1318.32 212.162 1320.28 210.879 1320.7 208.876C1321.13 206.873 1319.86 204.907 1317.87 204.485Z" fill="white"/>
<path d="M1260.26 313.222C1257.9 312.723 1255.59 314.239 1255.09 316.606C1254.59 318.974 1256.09 321.297 1258.44 321.795C1260.79 322.294 1263.11 320.778 1263.61 318.411C1264.11 316.043 1262.61 313.72 1260.26 313.222Z" fill="white"/>
<path d="M1405.19 779.785C1401.93 779.095 1398.73 781.193 1398.04 784.471C1397.34 787.749 1399.42 790.966 1402.68 791.656C1405.93 792.346 1409.14 790.248 1409.83 786.97C1410.53 783.691 1408.45 780.475 1405.19 779.785Z" fill="white"/>
<path d="M1369.32 732.562C1366.24 731.911 1363.22 733.892 1362.56 736.989C1361.91 740.085 1363.87 743.123 1366.94 743.774C1370.02 744.426 1373.05 742.444 1373.7 739.348C1374.36 736.252 1372.39 733.214 1369.32 732.562Z" fill="white"/>
<path d="M1367.06 279.337C1364.35 278.762 1361.68 280.51 1361.1 283.242C1360.52 285.974 1362.25 288.655 1364.97 289.229C1367.68 289.804 1370.35 288.056 1370.93 285.324C1371.51 282.592 1369.78 279.912 1367.06 279.337Z" fill="white"/>
<path d="M1423.49 358.822C1420.96 358.286 1418.46 359.918 1417.92 362.467C1417.38 365.017 1419 367.519 1421.53 368.056C1424.07 368.592 1426.56 366.96 1427.1 364.411C1427.64 361.861 1426.02 359.359 1423.49 358.822Z" fill="white"/>
<path d="M1426.59 462.158C1422.97 461.391 1419.42 463.723 1418.64 467.365C1417.87 471.007 1420.18 474.582 1423.8 475.348C1427.42 476.115 1430.98 473.784 1431.75 470.141C1432.52 466.499 1430.21 462.924 1426.59 462.158Z" fill="white"/>
<path d="M1544.82 497.191L1422.51 363.439L1425.2 468.753L1544.82 497.191Z" stroke="white" stroke-miterlimit="10" stroke-linecap="round" stroke-linejoin="round"/>
<path d="M1427.62 239.103L1410.19 109.648L1366.01 284.283L1427.62 239.103Z" stroke="white" stroke-miterlimit="10" stroke-linecap="round" stroke-linejoin="round"/>
<path d="M1416.16 47.5144L1421.25 -7.2256L1335.53 48.3527L1416.16 47.5144Z" stroke="white" stroke-miterlimit="10" stroke-linecap="round" stroke-linejoin="round"/>
<path d="M1317.1 208.113L1363.85 205.61L1348.44 129.646L1317.1 208.113Z" stroke="white" stroke-miterlimit="10" stroke-linecap="round" stroke-linejoin="round"/>
<path d="M1366.01 284.283L1427.62 239.103L1363.85 205.61L1366.01 284.283Z" stroke="white" stroke-miterlimit="10" stroke-linecap="round" stroke-linejoin="round"/>
<path d="M1199.19 179.692L1222.01 141.456L1248.1 171.792L1199.19 179.692Z" stroke="white" stroke-miterlimit="10" stroke-linecap="round" stroke-linejoin="round"/>
<path d="M1307.92 -39.5L1416.16 47.5144L1335.53 48.3527L1307.92 -39.5Z" stroke="white" stroke-miterlimit="10" stroke-linecap="round" stroke-linejoin="round"/>
<path d="M1161.1 31.3896L1165.38 9.55591L1127.63 18.0973L1161.1 31.3896Z" stroke="white" stroke-miterlimit="10" stroke-linecap="round" stroke-linejoin="round"/>
<path d="M989.115 28.7275L1004.84 -9.97661L947.815 5.50824L989.115 28.7275Z" stroke="white" stroke-miterlimit="10" stroke-linecap="round" stroke-linejoin="round"/>
<path d="M1057.01 68.6062L1127.63 18.0968L1144.84 122.698L1057.01 68.6062Z" stroke="white" stroke-miterlimit="10" stroke-linecap="round" stroke-linejoin="round"/>
<path d="M1259.35 317.509L1220.79 228.025L1192.95 283.461L1259.35 317.509Z" stroke="white" stroke-miterlimit="10" stroke-linecap="round" stroke-linejoin="round"/>
<path d="M973.828 42.7176L989.115 28.728L1009.4 46.117L973.828 42.7176Z" stroke="white" stroke-miterlimit="10" stroke-linecap="round" stroke-linejoin="round"/>
<path d="M1427.62 239.102L1544.82 497.191L1422.51 363.439L1427.62 239.102Z" stroke="white" stroke-miterlimit="10" stroke-linecap="round" stroke-linejoin="round"/>
<path d="M1526.86 640.168L1422.51 363.439L1544.82 497.191L1526.86 640.168Z" stroke="white" stroke-miterlimit="10" stroke-linecap="round" stroke-linejoin="round"/>
<path d="M1699.11 648.054L1544.82 497.191L1425.2 468.753L1699.11 648.054Z" stroke="white" stroke-miterlimit="10" stroke-linecap="round" stroke-linejoin="round"/>
<path d="M941.822 -108.431L905.923 -289.691L791.31 36.4461L941.822 -108.431Z" stroke="white" stroke-miterlimit="10" stroke-linecap="round" stroke-linejoin="round"/>
<path d="M1403.93 785.721L1474.29 760.655L1368.13 738.169L1403.93 785.721Z" stroke="white" stroke-miterlimit="10" stroke-linecap="round" stroke-linejoin="round"/>
<path d="M1410.19 109.648L1335.53 48.3521L1348.44 129.645L1410.19 109.648Z" stroke="white" stroke-miterlimit="10" stroke-linecap="round" stroke-linejoin="round"/>
<path d="M1317.1 208.112L1259.35 317.508L1192.95 283.461L1317.1 208.112Z" stroke="white" stroke-miterlimit="10" stroke-linecap="round" stroke-linejoin="round"/>
<path d="M1199.19 179.691L1222.01 141.455L1220.79 228.025L1199.19 179.691Z" stroke="white" stroke-miterlimit="10" stroke-linecap="round" stroke-linejoin="round"/>
<path d="M945.794 -68.9995L989.115 28.7275L947.815 5.50823L945.794 -68.9995Z" stroke="white" stroke-miterlimit="10" stroke-linecap="round" stroke-linejoin="round"/>
<path d="M1366.01 284.283L1422.51 363.439L1259.35 317.509L1366.01 284.283Z" stroke="white" stroke-miterlimit="10" stroke-linecap="round" stroke-linejoin="round"/>
<path d="M1165.38 9.55596L1307.92 -39.5001L1335.53 48.3525L1165.38 9.55596Z" stroke="white" stroke-miterlimit="10" stroke-linecap="round" stroke-linejoin="round"/>
<path d="M1222.01 141.456L1161.1 31.3898L1144.84 122.699L1222.01 141.456Z" stroke="white" stroke-miterlimit="10" stroke-linecap="round" stroke-linejoin="round"/>
</g>
</g>
</svg>
