<svg width="612" height="722" viewBox="0 0 612 722" fill="none" xmlns="http://www.w3.org/2000/svg">
<g opacity="0.8">
<mask id="mask0" mask-type="alpha" maskUnits="userSpaceOnUse" x="0" y="0" width="612" height="722">
<rect width="612" height="722" fill="#EDEFF6"/>
</mask>
<g mask="url(#mask0)">
<path d="M231.622 56.5963C232.729 56.5329 233.575 55.5782 233.512 54.4637C233.448 53.3493 232.498 52.4972 231.391 52.5606C230.284 52.6239 229.438 53.5788 229.502 54.6932C229.565 55.8077 230.515 56.6597 231.622 56.5963Z" fill="white"/>
<path d="M334.46 30.4564C337.046 30.3084 339.021 28.0791 338.872 25.4771C338.723 22.8751 336.506 20.8857 333.921 21.0336C331.336 21.1816 329.36 23.4109 329.509 26.0129C329.658 28.6149 331.875 30.6043 334.46 30.4564Z" fill="white"/>
<path d="M16.9334 115.476C18.0407 115.412 18.8867 114.457 18.8229 113.343C18.7592 112.228 17.8098 111.376 16.7024 111.44C15.5951 111.503 14.7491 112.458 14.8129 113.572C14.8766 114.687 15.826 115.539 16.9334 115.476Z" fill="white"/>
<path d="M440.627 62.5305C442.473 62.4249 443.883 60.8332 443.777 58.9753C443.671 57.1174 442.088 55.697 440.242 55.8026C438.396 55.9083 436.986 57.5 437.092 59.3579C437.198 61.2157 438.781 62.6362 440.627 62.5305Z" fill="white"/>
<path d="M303.927 118.299C307.251 118.109 309.79 115.243 309.599 111.897C309.407 108.552 306.558 105.994 303.234 106.184C299.909 106.375 297.37 109.241 297.561 112.586C297.753 115.932 300.603 118.49 303.927 118.299Z" fill="white"/>
<path d="M318.537 637.413C320.568 637.297 322.12 635.545 322.003 633.501C321.886 631.456 320.145 629.893 318.113 630.009C316.082 630.125 314.53 631.877 314.647 633.922C314.764 635.966 316.505 637.529 318.537 637.413Z" fill="white"/>
<path d="M292.391 690.564C293.868 690.48 294.996 689.206 294.911 687.72C294.826 686.234 293.56 685.097 292.083 685.182C290.606 685.266 289.478 686.54 289.563 688.026C289.648 689.512 290.914 690.649 292.391 690.564Z" fill="white"/>
<path d="M501.202 65.8194C503.418 65.6926 505.111 63.7817 504.983 61.5514C504.856 59.3211 502.956 57.616 500.74 57.7428C498.524 57.8696 496.831 59.7804 496.958 62.0107C497.086 64.241 498.986 65.9462 501.202 65.8194Z" fill="white"/>
<path d="M470.492 168.188C471.784 168.114 472.772 167 472.697 165.7C472.623 164.399 471.515 163.405 470.223 163.479C468.93 163.553 467.943 164.667 468.018 165.968C468.092 167.268 469.2 168.262 470.492 168.188Z" fill="white"/>
<path d="M460.992 201.484C463.024 201.368 464.576 199.616 464.459 197.572C464.342 195.527 462.6 193.964 460.569 194.081C458.537 194.197 456.985 195.948 457.102 197.993C457.219 200.037 458.961 201.6 460.992 201.484Z" fill="white"/>
<path d="M482.829 342.714C485.045 342.587 486.738 340.677 486.61 338.446C486.483 336.216 484.583 334.511 482.367 334.638C480.151 334.764 478.458 336.675 478.585 338.906C478.713 341.136 480.613 342.841 482.829 342.714Z" fill="white"/>
<path d="M499.944 290.075C501.051 290.011 501.897 289.056 501.833 287.942C501.769 286.828 500.82 285.975 499.713 286.039C498.605 286.102 497.759 287.057 497.823 288.171C497.887 289.286 498.836 290.138 499.944 290.075Z" fill="white"/>
<path d="M513.198 228.545C516.706 228.344 519.387 225.319 519.185 221.788C518.983 218.256 515.975 215.556 512.466 215.757C508.957 215.958 506.276 218.984 506.478 222.515C506.681 226.046 509.689 228.746 513.198 228.545Z" fill="white"/>
<path d="M532.464 154.853C535.049 154.705 537.024 152.475 536.875 149.873C536.726 147.271 534.51 145.282 531.924 145.43C529.339 145.578 527.364 147.807 527.513 150.409C527.662 153.011 529.878 155.001 532.464 154.853Z" fill="white"/>
<path d="M464.616 165.15C467.386 164.992 469.502 162.603 469.343 159.815C469.183 157.028 466.808 154.896 464.038 155.055C461.268 155.213 459.152 157.602 459.312 160.389C459.471 163.177 461.846 165.309 464.616 165.15Z" fill="white"/>
<path d="M488.901 38.4974C490.563 38.4024 491.832 36.9698 491.736 35.2978C491.641 33.6257 490.216 32.3473 488.555 32.4424C486.894 32.5374 485.624 33.97 485.72 35.642C485.816 37.3141 487.24 38.5925 488.901 38.4974Z" fill="white"/>
<path d="M234.658 179.996C236.135 179.911 237.263 178.638 237.178 177.152C237.093 175.665 235.827 174.529 234.35 174.614C232.873 174.698 231.745 175.972 231.83 177.458C231.915 178.944 233.181 180.08 234.658 179.996Z" fill="white"/>
<path d="M409.645 664.271C411.491 664.165 412.901 662.574 412.795 660.716C412.688 658.858 411.106 657.437 409.26 657.543C407.414 657.649 406.003 659.24 406.11 661.098C406.216 662.956 407.799 664.377 409.645 664.271Z" fill="white"/>
<path d="M324.293 691.102C325.031 691.06 325.595 690.424 325.552 689.681C325.51 688.938 324.877 688.37 324.139 688.412C323.4 688.454 322.836 689.091 322.879 689.834C322.921 690.576 323.554 691.145 324.293 691.102Z" fill="white"/>
<path d="M361.973 112.612C363.634 112.517 364.903 111.084 364.807 109.412C364.712 107.74 363.287 106.462 361.626 106.557C359.965 106.652 358.695 108.084 358.791 109.756C358.887 111.428 360.311 112.707 361.973 112.612Z" fill="white"/>
<path d="M335.886 166.775C337.547 166.68 338.816 165.247 338.721 163.575C338.625 161.903 337.201 160.625 335.539 160.72C333.878 160.815 332.609 162.247 332.704 163.919C332.8 165.591 334.224 166.87 335.886 166.775Z" fill="white"/>
<path d="M425.778 225.108C427.809 224.991 429.361 223.24 429.244 221.195C429.127 219.151 427.385 217.588 425.354 217.704C423.323 217.82 421.771 219.572 421.888 221.616C422.005 223.661 423.746 225.224 425.778 225.108Z" fill="white"/>
<path d="M367.768 166.977C368.322 166.946 368.745 166.468 368.713 165.911C368.681 165.354 368.206 164.928 367.653 164.959C367.099 164.991 366.676 165.469 366.708 166.026C366.74 166.583 367.215 167.009 367.768 166.977Z" fill="white"/>
<path d="M52.2117 226.328C52.4633 225.051 51.6381 223.809 50.3684 223.555C49.0988 223.301 47.8656 224.13 47.614 225.408C47.3623 226.685 48.1875 227.927 49.4571 228.181C50.7267 228.435 51.96 227.606 52.2117 226.328Z" fill="white"/>
<path d="M61.4888 194.908C61.6685 193.996 61.0792 193.109 60.1726 192.927C59.2659 192.746 58.3852 193.338 58.2055 194.251C58.0258 195.163 58.6151 196.05 59.5218 196.231C60.4284 196.413 61.3091 195.82 61.4888 194.908Z" fill="white"/>
<path d="M536.338 251.868L499.83 288.058L512.832 222.152L536.338 251.868Z" stroke="white" stroke-miterlimit="10" stroke-linecap="round" stroke-linejoin="round"/>
<path d="M464.327 160.102L532.194 150.141L460.781 197.782L464.327 160.102Z" stroke="white" stroke-miterlimit="10" stroke-linecap="round" stroke-linejoin="round"/>
<path d="M512.832 222.151L464.328 160.102L460.781 197.782L512.832 222.151Z" stroke="white" stroke-miterlimit="10" stroke-linecap="round" stroke-linejoin="round"/>
<path d="M302.418 162.277L303.58 112.242L335.714 163.748L302.418 162.277Z" stroke="white" stroke-miterlimit="10" stroke-linecap="round" stroke-linejoin="round"/>
<path d="M361.801 109.585L303.58 112.242L302.418 162.277L361.801 109.585Z" stroke="white" stroke-miterlimit="10" stroke-linecap="round" stroke-linejoin="round"/>
<path d="M246.324 -79.2939L231.508 54.5801L334.19 25.7451L246.324 -79.2939Z" stroke="white" stroke-miterlimit="10" stroke-linecap="round" stroke-linejoin="round"/>
<path d="M500.971 61.781L488.73 35.4711L440.436 59.1679L500.971 61.781Z" stroke="white" stroke-miterlimit="10" stroke-linecap="round" stroke-linejoin="round"/>
<path d="M500.971 61.781L532.194 150.141L647.949 62.4861L500.971 61.781Z" stroke="white" stroke-miterlimit="10" stroke-linecap="round" stroke-linejoin="round"/>
<path d="M643.549 138.029L500.971 61.781L647.949 62.4861L643.549 138.029Z" stroke="white" stroke-miterlimit="10" stroke-linecap="round" stroke-linejoin="round"/>
<path d="M536.338 251.868L532.194 150.141L650.969 279.409L536.338 251.868Z" stroke="white" stroke-miterlimit="10" stroke-linecap="round" stroke-linejoin="round"/>
<path d="M482.598 338.676L633.767 353.997L619.504 485.813L482.598 338.676Z" stroke="white" stroke-miterlimit="10" stroke-linecap="round" stroke-linejoin="round"/>
<path d="M488.73 35.471L462.701 -167.305L283.561 -261.044L488.73 35.471Z" stroke="white" stroke-miterlimit="10" stroke-linecap="round" stroke-linejoin="round"/>
<path d="M667.864 -11.5819L488.73 35.4708L462.7 -167.306L667.864 -11.5819Z" stroke="white" stroke-miterlimit="10" stroke-linecap="round" stroke-linejoin="round"/>
<path d="M695.042 -169.797L488.73 35.4708L462.7 -167.306L695.042 -169.797Z" stroke="white" stroke-miterlimit="10" stroke-linecap="round" stroke-linejoin="round"/>
<path d="M409.453 660.909L318.325 633.711L292.238 687.874L409.453 660.909Z" stroke="white" stroke-miterlimit="10" stroke-linecap="round" stroke-linejoin="round"/>
<path d="M536.338 251.868L619.504 485.813L482.598 338.676L536.338 251.868Z" stroke="white" stroke-miterlimit="10" stroke-linecap="round" stroke-linejoin="round"/>
<path d="M499.829 288.058L482.598 338.676L633.767 353.997L499.829 288.058Z" stroke="white" stroke-miterlimit="10" stroke-linecap="round" stroke-linejoin="round"/>
<path d="M440.436 59.1678L464.328 160.102L364.476 109.432L440.436 59.1678Z" stroke="white" stroke-miterlimit="10" stroke-linecap="round" stroke-linejoin="round"/>
</g>
</g>
</svg>
