<svg width="762" height="530" viewBox="0 0 762 530" fill="none" xmlns="http://www.w3.org/2000/svg">
<g opacity="0.8">
<mask id="mask0" mask-type="alpha" maskUnits="userSpaceOnUse" x="0" y="0" width="762" height="530">
<rect x="762" y="530" width="762" height="530" transform="rotate(-180 762 530)" fill="#EDEFF6"/>
</mask>
<g mask="url(#mask0)">
<path d="M22.23 490.07C26.3921 490.952 30.4854 488.271 31.3726 484.082C32.2599 479.893 29.6051 475.783 25.4431 474.901C21.281 474.02 17.1877 476.701 16.3005 480.89C15.4132 485.079 18.068 489.189 22.23 490.07Z" fill="white"/>
<path d="M28.7599 425.299C31.4743 425.874 34.1438 424.125 34.7224 421.393C35.3011 418.661 33.5697 415.981 30.8553 415.406C28.1409 414.831 25.4714 416.579 24.8927 419.311C24.3141 422.043 26.0455 424.724 28.7599 425.299Z" fill="white"/>
<path d="M20.078 357.994C22.0685 358.415 24.0261 357.133 24.4505 355.13C24.8748 353.126 23.6052 351.161 21.6146 350.739C19.6241 350.317 17.6665 351.6 17.2422 353.603C16.8178 355.606 18.0874 357.572 20.078 357.994Z" fill="white"/>
<path d="M11.5408 294.855C13.7123 295.315 15.848 293.916 16.3109 291.73C16.7738 289.545 15.3886 287.4 13.2171 286.94C11.0456 286.48 8.91013 287.879 8.44722 290.065C7.98431 292.25 9.36926 294.395 11.5408 294.855Z" fill="white"/>
<path d="M191.267 361.177C193.62 361.675 195.933 360.16 196.435 357.792C196.936 355.424 195.436 353.101 193.083 352.603C190.731 352.105 188.417 353.62 187.916 355.988C187.414 358.355 188.915 360.678 191.267 361.177Z" fill="white"/>
<path d="M294.88 408.618C295.603 408.772 296.315 408.306 296.469 407.578C296.623 406.85 296.162 406.135 295.438 405.982C294.715 405.829 294.003 406.295 293.849 407.023C293.695 407.751 294.156 408.465 294.88 408.618Z" fill="white"/>
<path d="M273.571 525.391C276.286 525.966 278.955 524.217 279.534 521.486C280.112 518.754 278.381 516.073 275.667 515.498C272.952 514.923 270.283 516.672 269.704 519.403C269.125 522.135 270.857 524.816 273.571 525.391Z" fill="white"/>
<path d="M381.729 467.329C384.986 468.019 388.19 465.921 388.884 462.643C389.578 459.365 387.501 456.148 384.243 455.458C380.986 454.768 377.783 456.866 377.088 460.144C376.394 463.423 378.472 466.64 381.729 467.329Z" fill="white"/>
<path d="M103.281 487.254C106.357 487.905 109.383 485.924 110.038 482.828C110.694 479.732 108.732 476.694 105.656 476.042C102.579 475.39 99.5538 477.372 98.898 480.468C98.2423 483.564 100.205 486.602 103.281 487.254Z" fill="white"/>
<path d="M26.7114 436.577C27.7965 436.807 28.8638 436.108 29.0951 435.016C29.3264 433.924 28.6342 432.853 27.5491 432.623C26.464 432.393 25.397 433.092 25.1656 434.184C24.9343 435.276 25.6264 436.348 26.7114 436.577Z" fill="white"/>
<path d="M75.2452 328.677C77.5977 329.175 79.9113 327.66 80.4127 325.292C80.9142 322.925 79.4137 320.601 77.0613 320.103C74.7088 319.605 72.3952 321.12 71.8937 323.488C71.3923 325.855 72.8928 328.179 75.2452 328.677Z" fill="white"/>
<path d="M109.663 371.454C110.386 371.608 111.098 371.142 111.252 370.414C111.406 369.686 110.945 368.971 110.221 368.818C109.498 368.665 108.786 369.131 108.632 369.859C108.478 370.587 108.939 371.301 109.663 371.454Z" fill="white"/>
<path d="M287.408 422.885C288.312 423.077 289.201 422.494 289.394 421.584C289.587 420.674 289.01 419.781 288.106 419.589C287.202 419.398 286.312 419.98 286.12 420.89C285.927 421.8 286.504 422.693 287.408 422.885Z" fill="white"/>
<path d="M311.538 515.86C313.709 516.32 315.845 514.921 316.307 512.736C316.77 510.55 315.385 508.406 313.214 507.946C311.042 507.486 308.907 508.885 308.444 511.07C307.981 513.256 309.366 515.4 311.538 515.86Z" fill="white"/>
<path d="M239.487 356.574C242.925 357.302 246.307 355.087 247.04 351.627C247.772 348.167 245.579 344.771 242.141 344.043C238.703 343.315 235.321 345.529 234.588 348.99C233.855 352.45 236.049 355.846 239.487 356.574Z" fill="white"/>
<path d="M217.156 392.502C219.327 392.962 221.463 391.563 221.926 389.378C222.389 387.192 221.004 385.048 218.832 384.588C216.661 384.128 214.525 385.526 214.062 387.712C213.599 389.897 214.984 392.042 217.156 392.502Z" fill="white"/>
<path d="M246.487 249.175C247.934 249.481 249.357 248.549 249.665 247.093C249.974 245.636 249.051 244.207 247.604 243.901C246.157 243.594 244.733 244.526 244.425 245.983C244.116 247.439 245.04 248.868 246.487 249.175Z" fill="white"/>
<path d="M218.165 306.921C220.88 307.496 223.549 305.747 224.128 303.016C224.707 300.284 222.975 297.603 220.261 297.028C217.546 296.453 214.877 298.202 214.298 300.933C213.72 303.665 215.451 306.346 218.165 306.921Z" fill="white"/>
<path d="M648.201 495.86C649.467 496.129 650.713 495.313 650.982 494.039C651.252 492.764 650.445 491.514 649.178 491.246C647.912 490.977 646.667 491.793 646.397 493.067C646.127 494.342 646.935 495.592 648.201 495.86Z" fill="white"/>
<path d="M685.748 488.307C687.556 488.691 689.335 487.525 689.721 485.705C690.107 483.884 688.953 482.098 687.144 481.715C685.335 481.332 683.556 482.497 683.17 484.317C682.785 486.138 683.939 487.924 685.748 488.307Z" fill="white"/>
<path d="M686.663 467.831C689.92 468.521 693.123 466.422 693.818 463.144C694.512 459.866 692.435 456.649 689.177 455.959C685.92 455.269 682.717 457.367 682.022 460.646C681.328 463.924 683.406 467.141 686.663 467.831Z" fill="white"/>
<path d="M453.125 504.311C454.761 503.089 455.106 500.767 453.896 499.124C452.686 497.482 450.378 497.14 448.742 498.362C447.106 499.584 446.76 501.906 447.97 503.549C449.181 505.191 451.488 505.532 453.125 504.311Z" fill="white"/>
<path d="M494.828 528.142C496.762 526.698 497.17 523.954 495.74 522.012C494.31 520.071 491.583 519.668 489.649 521.111C487.715 522.555 487.307 525.299 488.737 527.241C490.168 529.182 492.895 529.585 494.828 528.142Z" fill="white"/>
<path d="M433.931 488.496C436.46 486.608 436.994 483.019 435.123 480.48C433.253 477.942 429.687 477.414 427.158 479.302C424.629 481.19 424.095 484.779 425.966 487.317C427.836 489.856 431.403 490.384 433.931 488.496Z" fill="white"/>
<path d="M468.178 490.27C469.814 489.048 470.16 486.726 468.95 485.084C467.739 483.441 465.432 483.1 463.795 484.321C462.159 485.543 461.814 487.865 463.024 489.508C464.234 491.15 466.542 491.492 468.178 490.27Z" fill="white"/>
<path d="M18.5318 423.474C19.6169 423.704 20.6841 423.005 20.9154 421.913C21.1467 420.821 20.4545 419.749 19.3694 419.52C18.2843 419.29 17.2173 419.989 16.986 421.081C16.7546 422.173 17.4467 423.244 18.5318 423.474Z" fill="white"/>
<path d="M98.0764 456.862C98.9807 457.053 99.8699 456.471 100.063 455.561C100.255 454.651 99.6787 453.758 98.7745 453.566C97.8702 453.375 96.9809 453.957 96.7882 454.867C96.5954 455.777 97.1722 456.67 98.0764 456.862Z" fill="white"/>
<path d="M122.132 325.515C124.123 325.937 126.081 324.654 126.505 322.651C126.929 320.648 125.66 318.682 123.669 318.26C121.679 317.839 119.721 319.121 119.297 321.124C118.872 323.128 120.142 325.093 122.132 325.515Z" fill="white"/>
<path d="M179.743 216.778C182.095 217.277 184.409 215.761 184.91 213.394C185.412 211.026 183.911 208.703 181.559 208.205C179.207 207.706 176.893 209.222 176.391 211.589C175.89 213.957 177.391 216.28 179.743 216.778Z" fill="white"/>
<path d="M72.9393 250.663C75.6537 251.238 78.3232 249.49 78.9019 246.758C79.4805 244.026 77.7491 241.345 75.0347 240.77C72.3203 240.195 69.6508 241.944 69.0722 244.676C68.4935 247.408 70.2249 250.088 72.9393 250.663Z" fill="white"/>
<path d="M16.5112 171.178C19.0446 171.715 21.5361 170.083 22.0761 167.533C22.6162 164.983 21.0004 162.481 18.4669 161.945C15.9335 161.408 13.4418 163.04 12.9018 165.59C12.3617 168.139 13.9777 170.641 16.5112 171.178Z" fill="white"/>
<path d="M13.4067 67.8424C17.0259 68.609 20.5853 66.2777 21.3568 62.6352C22.1283 58.9928 19.8198 55.4185 16.2006 54.652C12.5814 53.8854 9.02202 56.2167 8.2505 59.8592C7.47899 63.5016 9.78749 67.0758 13.4067 67.8424Z" fill="white"/>
<path d="M-104.817 32.8091L17.4896 166.561L14.8042 61.2474L-104.817 32.8091Z" stroke="white" stroke-miterlimit="10" stroke-linecap="round" stroke-linejoin="round"/>
<path d="M12.3788 290.897L29.8075 420.352L73.987 245.717L12.3788 290.897Z" stroke="white" stroke-miterlimit="10" stroke-linecap="round" stroke-linejoin="round"/>
<path d="M23.8362 482.486L18.7464 537.226L104.468 481.648L23.8362 482.486Z" stroke="white" stroke-miterlimit="10" stroke-linecap="round" stroke-linejoin="round"/>
<path d="M122.9 321.888L76.1522 324.39L91.5588 400.355L122.9 321.888Z" stroke="white" stroke-miterlimit="10" stroke-linecap="round" stroke-linejoin="round"/>
<path d="M73.987 245.717L12.3788 290.897L76.1527 324.39L73.987 245.717Z" stroke="white" stroke-miterlimit="10" stroke-linecap="round" stroke-linejoin="round"/>
<path d="M240.814 350.309L217.994 388.545L191.896 358.209L240.814 350.309Z" stroke="white" stroke-miterlimit="10" stroke-linecap="round" stroke-linejoin="round"/>
<path d="M132.078 569.5L23.8362 482.486L104.468 481.648L132.078 569.5Z" stroke="white" stroke-miterlimit="10" stroke-linecap="round" stroke-linejoin="round"/>
<path d="M278.901 498.61L274.618 520.444L312.375 511.903L278.901 498.61Z" stroke="white" stroke-miterlimit="10" stroke-linecap="round" stroke-linejoin="round"/>
<path d="M450.885 501.273L435.156 539.977L492.186 524.492L450.885 501.273Z" stroke="white" stroke-miterlimit="10" stroke-linecap="round" stroke-linejoin="round"/>
<path d="M382.986 461.394L312.375 511.903L295.16 407.302L382.986 461.394Z" stroke="white" stroke-miterlimit="10" stroke-linecap="round" stroke-linejoin="round"/>
<path d="M180.651 212.491L219.213 301.975L247.046 246.539L180.651 212.491Z" stroke="white" stroke-miterlimit="10" stroke-linecap="round" stroke-linejoin="round"/>
<path d="M687.92 461.895L648.691 493.554L686.447 485.013L687.92 461.895Z" stroke="white" stroke-miterlimit="10" stroke-linecap="round" stroke-linejoin="round"/>
<path d="M466.173 487.283L450.885 501.272L430.603 483.883L466.173 487.283Z" stroke="white" stroke-miterlimit="10" stroke-linecap="round" stroke-linejoin="round"/>
<path d="M12.3795 290.898L-104.817 32.8091L17.4896 166.561L12.3795 290.898Z" stroke="white" stroke-miterlimit="10" stroke-linecap="round" stroke-linejoin="round"/>
<path d="M-86.8582 -110.168L17.4891 166.561L-104.818 32.8089L-86.8582 -110.168Z" stroke="white" stroke-miterlimit="10" stroke-linecap="round" stroke-linejoin="round"/>
<path d="M-259.105 -118.054L-104.818 32.8088L14.8035 61.2471L-259.105 -118.054Z" stroke="white" stroke-miterlimit="10" stroke-linecap="round" stroke-linejoin="round"/>
<path d="M498.179 638.431L534.077 819.692L648.69 493.554L498.179 638.431Z" stroke="white" stroke-miterlimit="10" stroke-linecap="round" stroke-linejoin="round"/>
<path d="M686.447 485.013L1186.4 741.48" stroke="white" stroke-miterlimit="10" stroke-linecap="round" stroke-linejoin="round"/>
<path d="M29.8075 420.352L104.468 481.648L91.5593 400.355L29.8075 420.352Z" stroke="white" stroke-miterlimit="10" stroke-linecap="round" stroke-linejoin="round"/>
<path d="M122.901 321.888L180.651 212.491L247.046 246.539L122.901 321.888Z" stroke="white" stroke-miterlimit="10" stroke-linecap="round" stroke-linejoin="round"/>
<path d="M240.815 350.309L217.995 388.545L219.213 301.975L240.815 350.309Z" stroke="white" stroke-miterlimit="10" stroke-linecap="round" stroke-linejoin="round"/>
<path d="M494.206 598.999L450.885 501.272L492.185 524.492L494.206 598.999Z" stroke="white" stroke-miterlimit="10" stroke-linecap="round" stroke-linejoin="round"/>
<path d="M73.9872 245.717L17.489 166.561L180.651 212.491L73.9872 245.717Z" stroke="white" stroke-miterlimit="10" stroke-linecap="round" stroke-linejoin="round"/>
<path d="M274.618 520.444L132.078 569.5L104.468 481.648L274.618 520.444Z" stroke="white" stroke-miterlimit="10" stroke-linecap="round" stroke-linejoin="round"/>
<path d="M217.994 388.545L278.9 498.61L295.16 407.301L217.994 388.545Z" stroke="white" stroke-miterlimit="10" stroke-linecap="round" stroke-linejoin="round"/>
</g>
</g>
</svg>
