<svg width="129" height="30" viewBox="0 0 129 30" fill="none" xmlns="http://www.w3.org/2000/svg">
<path d="M8.10263 7.42347L7.94975 5.81633C7.64399 5.58674 7.10892 5.35715 6.57384 5.35715C5.65656 5.35715 5.19793 5.7398 5.19793 6.58164C5.19793 8.41837 12.3068 8.41837 12.3068 13.0867C12.3068 16.3776 10.0136 18.1378 6.1152 18.1378C2.75186 18.1378 0.764428 17.1429 0.764428 17.1429L0.687988 12.398L3.89845 12.2449L4.28065 14.7704C4.73929 14.9235 5.19793 15 5.65656 15C7.41467 15 7.79687 14.4643 7.79687 13.7755C7.79687 12.0153 0.687988 12.2449 0.687988 7.11735C0.687988 4.36225 2.90474 2.21939 5.88588 2.21939C6.80316 2.21939 7.79687 2.67857 8.56127 3.13776L9.09635 2.52551H11.6953V7.5H8.10263V7.42347Z" fill="white"/>
<path d="M19.0335 9.41324V13.2398C19.0335 14.2347 19.3392 14.8469 20.1801 14.8469C20.9445 14.8469 21.6324 14.6939 21.6324 14.6939V17.449C21.6324 17.449 20.9445 17.9847 18.8042 17.9847C16.0523 17.9847 14.6 17.0663 14.6 14.3112V9.48978H13.377V6.42855L14.6764 6.12243L15.2879 2.60202H19.0335V6.12243H21.7853V9.41324H19.0335Z" fill="white"/>
<path d="M23.5431 17.6786L23.3902 14.6173L24.6132 14.4643V9.41326L23.2373 9.18367L23.3902 6.12245H27.9001L28.2823 7.19387H28.4352C28.4352 7.19387 29.1996 5.58673 31.187 5.58673C32.8687 5.58673 33.7095 6.12245 33.7095 6.12245V10.8673H30.5755L30.4226 9.10714C29.276 9.10714 28.9703 9.94898 28.9703 10.0255V14.6939L30.6519 14.8469L30.4226 17.7551H23.5431V17.6786Z" fill="white"/>
<path d="M41.889 14.3112V13.0102C39.9016 13.1633 39.1372 13.3163 39.1372 14.1582C39.1372 15 39.5194 15.3061 40.2838 15.3061C41.4303 15.2296 41.8125 14.3878 41.889 14.3112ZM35.6974 10.2551L35.8503 5.81632H38.4492L38.755 6.42857C39.4429 5.96938 40.4366 5.58673 41.6597 5.58673C44.1822 5.58673 46.1696 6.88775 46.1696 10.3316V14.6173L47.3926 14.7704L47.1633 17.6786H42.5769L42.1947 16.8367H42.0419C42.0419 16.8367 41.3539 18.1378 38.8314 18.1378C36.2325 18.1378 34.5508 16.6837 34.5508 14.4643C34.5508 11.0204 38.755 10.5612 41.8125 10.2551C41.7361 8.95408 41.3539 8.64796 40.4366 8.64796C39.7487 8.64796 39.29 8.87755 39.0607 9.03061L38.9843 10.2551H35.6974Z" fill="white"/>
<path d="M53.9661 9.41324V13.2398C53.9661 14.2347 54.2719 14.8469 55.1127 14.8469C55.8771 14.8469 56.565 14.6939 56.565 14.6939V17.449C56.565 17.449 55.8771 17.9847 53.7368 17.9847C50.985 17.9847 49.5326 17.0663 49.5326 14.3112V9.48978H48.3096V6.42855L49.609 6.12243L50.2206 2.60202H53.9661V6.12243H56.7179V9.41324H53.9661Z" fill="white"/>
<path d="M62.3746 10.4847H65.6615C65.6615 10.4847 65.6615 10.1786 65.6615 10.0255C65.6615 9.41326 65.3558 8.72449 64.1327 8.72449C63.0626 8.64795 62.5275 9.2602 62.3746 10.4847ZM62.4511 13.3163C62.7568 14.6173 63.5212 15 64.8207 15C66.2731 15 67.4196 13.852 67.4196 13.852L69.4071 15.9949C69.4071 15.9949 67.9547 18.1378 64.6678 18.1378C60.5401 18.1378 58.0176 16.0714 58.0176 11.7857C58.0176 7.57653 60.7694 5.58673 64.2092 5.58673C67.8018 5.58673 69.7128 7.5 69.7128 10.7908C69.7128 12.2449 69.1013 13.2398 69.1013 13.2398H62.4511V13.3163Z" fill="white"/>
<path d="M75.3698 10.0255C75.3698 11.25 75.9814 11.7092 76.7458 11.7092C77.5102 11.7092 78.0452 11.25 78.0452 9.94898C78.0452 8.87755 77.4337 8.64796 76.7458 8.64796C75.9814 8.57143 75.3698 8.95409 75.3698 10.0255ZM75.217 18.75C74.9112 18.9031 74.6819 19.2092 74.6819 19.5153C74.6819 20.1276 75.2934 20.8163 76.8986 20.8163C78.5039 20.8163 79.0389 20.3571 79.0389 19.7449C79.1154 18.5969 77.0515 19.1327 75.217 18.75ZM82.2494 9.33674C82.3259 9.56633 82.3259 9.79592 82.3259 10.0255C82.3259 12.9337 79.8033 14.4643 76.8986 14.4643C76.8986 14.4643 75.5227 14.4643 75.5227 15C75.5227 15.3827 75.752 15.6122 78.351 15.6888C81.485 15.7653 83.3196 16.8367 83.3196 19.3622C83.3196 21.8112 81.6379 24.0306 76.9751 24.0306C72.2358 24.0306 70.707 21.8878 70.707 19.5918C70.707 18.2143 71.395 17.3725 72.3887 16.8367C72.1594 16.3776 72.0829 15.9184 72.0829 15.2296C72.0829 14.3878 72.4651 13.7755 72.9238 13.3929C71.8536 12.6276 71.0892 11.4796 71.0892 10.0255C71.0892 7.04082 73.9939 5.66327 76.8986 5.66327C78.1217 5.66327 79.2683 5.89286 80.1855 6.42857L82.8609 6.12245L83.0902 9.26021L82.2494 9.33674Z" fill="white"/>
<path d="M84.5423 17.6786L84.313 14.5408L85.536 14.3877V9.33672L84.3894 9.18366L84.6187 6.12244H89.8931V14.6173L91.1161 14.7704L90.8868 17.6786H84.5423Z" fill="white"/>
<path d="M101.053 9.33672L99.9828 9.18366L100.136 6.12244H105.41V14.6173L106.633 14.7704L106.48 17.6786H101.664L101.359 17.0663H101.206C101.206 17.0663 100.212 18.1377 97.6896 18.1377C94.8614 18.1377 93.409 16.3775 93.409 13.5459V9.33672L92.3389 9.18366L92.4917 6.12244H97.7661V12.7806C97.7661 13.699 97.9954 14.6173 99.2184 14.6173C100.289 14.6173 101.053 14.0051 101.053 14.0051V9.33672Z" fill="white"/>
<path d="M122.915 17.6786V10.3316C122.915 9.2602 122.609 9.10714 121.768 9.10714C121.233 9.10714 120.774 9.41326 120.621 9.48979V14.5408L121.845 14.6939L121.615 17.602H116.188V10.2551C116.188 9.18367 115.882 9.03061 115.041 9.03061C114.43 9.03061 113.971 9.41326 113.818 9.41326V14.4643L115.041 14.6173L114.812 17.5255H108.391L108.238 14.4643L109.461 14.3112V9.2602L108.391 9.10714L108.62 6.04591H113.36L113.589 6.65816H113.742C113.742 6.65816 114.583 5.58673 116.647 5.58673C118.023 5.58673 119.093 5.96938 119.704 6.65816H119.857C119.857 6.65816 120.927 5.58673 123.373 5.58673C126.125 5.58673 127.348 6.81122 127.348 9.56632V14.5408L128.571 14.6939L128.342 17.602H122.915V17.6786Z" fill="white"/>
<path d="M89.2816 2.14286C89.2816 3.29082 88.2879 4.28571 87.1413 4.28571C85.9947 4.28571 85.001 3.29082 85.001 2.14286C85.001 0.994898 85.9947 0 87.1413 0C88.3643 0 89.2816 0.918367 89.2816 2.14286Z" fill="white"/>
<path fill-rule="evenodd" clip-rule="evenodd" d="M7.3382 25.0255V21.5816H5.96229L5.65653 21.9643C5.19789 21.6582 4.66282 21.4286 3.97486 21.4286C1.75811 21.4286 0 23.1122 0 25.5612C0 28.0102 1.22303 30 4.35706 30C6.87957 30 7.94972 28.4694 7.94972 28.4694L7.03244 26.9388C7.03244 26.9388 5.96229 28.0867 4.66282 28.0867C3.2869 28.0867 2.59895 27.0153 2.59895 25.5612C2.59895 24.0306 3.36334 23.2653 4.4335 23.2653C4.89214 23.2653 5.19789 23.4184 5.35077 23.5714L5.50365 24.949H7.3382V25.0255ZM11.8481 28.3928C11.0073 28.3928 10.778 27.7041 10.778 26.6326C10.778 25.5612 11.0073 24.949 11.8481 24.949C12.689 24.949 12.9183 25.5612 12.9183 26.6326C12.9183 27.7041 12.689 28.3928 11.8481 28.3928ZM11.8481 30C13.9885 30 15.3644 28.6224 15.3644 26.5561C15.3644 24.4898 14.0649 23.2653 11.8481 23.2653C9.63139 23.2653 8.33192 24.4898 8.33192 26.5561C8.33192 28.6224 9.55495 30 11.8481 30ZM19.645 29.6939L19.7214 28.1633L19.1099 28.0867V25.5612C19.1099 25.5612 19.4921 25.2551 20.1036 25.2551C20.7916 25.2551 20.868 25.4082 20.868 25.9439V29.7704H23.7727L23.8492 28.2398L23.1612 28.1633V25.5612C23.1612 24.0306 22.3968 23.3418 20.868 23.3418C19.4921 23.3418 18.957 23.9541 18.957 23.9541H18.8806L18.7277 23.6479H16.2052L16.1288 25.3316L16.7403 25.4082V28.0867L16.1288 28.1633L16.2052 29.8469H19.645V29.6939ZM30.1936 22.5765V20.2806H28.8942L28.7413 20.5867C28.4355 20.4337 28.0533 20.2041 27.5183 20.2041C25.913 20.2041 25.1486 21.2755 25.1486 22.5765V23.5714L24.4607 23.6479V25.3316H25.2251V28.0102L24.5371 28.0867L24.6136 29.6939H28.0533L28.1298 28.1633L27.4418 28.0867V25.2551H29.1235V23.4949H27.4418V22.7296C27.4418 22.0408 27.5947 21.8112 27.9769 21.8112C28.1298 21.8112 28.2827 21.8877 28.3591 21.9643L28.4355 22.5H30.1936V22.5765ZM33.0984 24.8724C33.7099 24.8724 33.9392 25.2551 33.9392 25.5612C33.9392 25.6377 33.9392 25.7908 33.9392 25.7908H32.1811C32.2575 25.1786 32.4868 24.8724 33.0984 24.8724ZM35.7737 27.3979C35.7737 27.3979 36.0795 26.8622 36.0795 26.0969C36.0795 24.3367 35.0858 23.2653 33.0984 23.2653C31.2638 23.2653 29.8115 24.3367 29.8115 26.5561C29.8115 28.852 31.1874 29.9235 33.4041 29.9235C35.1622 29.9235 35.9266 28.7755 35.9266 28.7755L34.8565 27.6275C34.8565 27.6275 34.2449 28.2398 33.4806 28.2398C32.7926 28.2398 32.334 28.0102 32.1811 27.3214H35.7737V27.3979ZM40.5894 29.6939L40.6659 28.1633L39.7486 28.0867V25.5612C39.7486 25.4847 39.9015 25.102 40.513 25.102L40.5894 26.0204H42.2711V23.4949C42.2711 23.4949 41.8125 23.1888 40.9716 23.1888C39.9015 23.1888 39.5193 24.0306 39.5193 24.0306H39.4428L39.2135 23.4184H36.7675L36.691 25.102L37.4554 25.2551V27.9337L36.8439 28.0102L36.9203 29.6939H40.5894ZM46.3224 24.8724C46.9339 24.8724 47.1632 25.2551 47.1632 25.5612C47.1632 25.6377 47.1632 25.7908 47.1632 25.7908H45.4051C45.4816 25.1786 45.7873 24.8724 46.3224 24.8724ZM48.9978 27.3979C48.9978 27.3979 49.3036 26.8622 49.3036 26.0969C49.3036 24.3367 48.3098 23.2653 46.3224 23.2653C44.4879 23.2653 43.0355 24.3367 43.0355 26.5561C43.0355 28.852 44.4114 29.9235 46.6282 29.9235C48.3863 29.9235 49.1507 28.7755 49.1507 28.7755L48.0805 27.6275C48.0805 27.6275 47.469 28.2398 46.7046 28.2398C46.0167 28.2398 45.558 28.0102 45.4051 27.3214H48.9978V27.3979ZM53.5842 29.6939L53.6606 28.1633L52.9727 28.0867V25.5612C52.9727 25.5612 53.3549 25.2551 53.9664 25.2551C54.6543 25.2551 54.7308 25.4082 54.7308 25.9439V29.7704H57.6355L57.7119 28.2398L57.024 28.1633V25.5612C57.024 24.0306 56.2596 23.3418 54.7308 23.3418C53.3549 23.3418 52.8198 23.9541 52.8198 23.9541H52.7433V23.5714H50.2208L50.1444 25.2551L50.7559 25.3316V28.0102L50.1444 28.0867L50.2208 29.7704H53.5842V29.6939ZM64.1328 26.25V23.4184H62.6805L62.5276 23.7245C62.2219 23.4949 61.7632 23.2653 61.3046 23.2653C59.5465 23.2653 58.3234 24.5663 58.3234 26.4796C58.3234 28.5459 59.3936 30 61.8397 30C63.8271 30 64.515 28.699 64.515 28.699L63.4449 27.551C63.4449 27.551 62.7569 28.3163 62.069 28.3163C61.2281 28.3163 60.7695 27.7806 60.7695 26.4796C60.7695 25.1786 61.1517 24.949 61.6103 24.949C61.9161 24.949 62.069 25.102 62.2219 25.1786L62.2983 26.25H64.1328ZM68.2606 24.8724C68.8721 24.8724 69.1014 25.2551 69.1014 25.5612C69.1014 25.6377 69.1014 25.7908 69.1014 25.7908H67.3433C67.4197 25.1786 67.7255 24.8724 68.2606 24.8724ZM70.936 27.3979C70.936 27.3979 71.2417 26.8622 71.2417 26.0969C71.2417 24.3367 70.248 23.2653 68.2606 23.2653C66.426 23.2653 64.9737 24.3367 64.9737 26.5561C64.9737 28.852 66.3496 29.9235 68.5663 29.9235C70.3244 29.9235 71.0888 28.7755 71.0888 28.7755L70.0187 27.6275C70.0187 27.6275 69.4072 28.2398 68.6428 28.2398C67.9548 28.2398 67.4962 28.0102 67.3433 27.3214H70.936V27.3979Z" fill="white"/>
</svg>
