<svg width="261" height="61" viewBox="0 0 261 61" fill="none" xmlns="http://www.w3.org/2000/svg">
<path d="M16.4487 15.0943L16.1384 11.8265C15.5177 11.3596 14.4315 10.8928 13.3452 10.8928C11.4832 10.8928 10.5521 11.6709 10.5521 13.3826C10.5521 17.1173 24.9832 17.1173 24.9832 26.6096C24.9832 33.301 20.328 36.8801 12.4142 36.8801C5.58663 36.8801 1.55215 34.8571 1.55215 34.8571L1.39697 25.2091L7.91421 24.8979L8.69007 30.0331C9.62111 30.3443 10.5521 30.5 11.4832 30.5C15.0521 30.5 15.828 29.4107 15.828 28.0102C15.828 24.4311 1.39697 24.8979 1.39697 14.4719C1.39697 8.86984 5.89697 4.5127 11.9487 4.5127C13.8108 4.5127 15.828 5.44637 17.3797 6.38004L18.4659 5.13514H23.7418V15.2499H16.4487V15.0943Z" fill="white"/>
<path d="M38.638 19.1405V26.9211C38.638 28.9441 39.2587 30.189 40.9656 30.189C42.5173 30.189 43.9139 29.8778 43.9139 29.8778V35.4798C43.9139 35.4798 42.5173 36.5691 38.1725 36.5691C32.5863 36.5691 29.638 34.7017 29.638 29.0997V19.2961H27.1553V13.0716L29.7932 12.4492L31.0346 5.29102H38.638V12.4492H44.2242V19.1405H38.638Z" fill="white"/>
<path d="M47.7926 35.9466L47.4822 29.7221L49.965 29.4109V19.1405L47.1719 18.6736L47.4822 12.4491H56.6374L57.4133 14.6277H57.7236C57.7236 14.6277 59.2753 11.3599 63.3098 11.3599C66.7236 11.3599 68.4305 12.4491 68.4305 12.4491V22.0971H62.0684L61.7581 18.518C59.4305 18.518 58.8098 20.2298 58.8098 20.3854V29.8777L62.2236 30.189L61.7581 36.1022H47.7926V35.9466Z" fill="white"/>
<path d="M85.0345 29.0997V26.4543C81 26.7655 79.4483 27.0767 79.4483 28.7884C79.4483 30.5002 80.2241 31.1226 81.7759 31.1226C84.1035 30.967 84.8793 29.2553 85.0345 29.0997ZM72.4655 20.8522L72.7759 11.8267H78.0517L78.6724 13.0716C80.069 12.1379 82.0862 11.3599 84.569 11.3599C89.6897 11.3599 93.7241 14.0053 93.7241 21.0078V29.7221L96.2069 30.0333L95.7414 35.9466H86.431L85.6552 34.2349H85.3448C85.3448 34.2349 83.9483 36.8803 78.8276 36.8803C73.5517 36.8803 70.1379 33.9236 70.1379 29.4109C70.1379 22.4083 78.6724 21.4747 84.8793 20.8522C84.7241 18.2068 83.9483 17.5844 82.0862 17.5844C80.6897 17.5844 79.7586 18.0512 79.2931 18.3624L79.1379 20.8522H72.4655Z" fill="white"/>
<path d="M109.551 19.1405V26.9211C109.551 28.9441 110.172 30.189 111.879 30.189C113.431 30.189 114.827 29.8778 114.827 29.8778V35.4798C114.827 35.4798 113.431 36.5691 109.086 36.5691C103.5 36.5691 100.551 34.7017 100.551 29.0997V19.2961H98.0686V13.0716L100.707 12.4492L101.948 5.29102H109.551V12.4492H115.138V19.1405H109.551Z" fill="white"/>
<path d="M126.621 21.3191H133.293C133.293 21.3191 133.293 20.6966 133.293 20.3854C133.293 19.1405 132.673 17.74 130.19 17.74C128.018 17.5844 126.931 18.8293 126.621 21.3191ZM126.776 27.0767C127.397 29.7221 128.949 30.5002 131.586 30.5002C134.535 30.5002 136.862 28.166 136.862 28.166L140.897 32.5231C140.897 32.5231 137.949 36.8803 131.276 36.8803C122.897 36.8803 117.776 32.6787 117.776 23.9645C117.776 15.4058 123.362 11.3599 130.345 11.3599C137.638 11.3599 141.517 15.2502 141.517 21.9415C141.517 24.8981 140.276 26.9211 140.276 26.9211H126.776V27.0767Z" fill="white"/>
<path d="M153 20.385C153 22.8748 154.242 23.8085 155.793 23.8085C157.345 23.8085 158.431 22.8748 158.431 20.2294C158.431 18.0509 157.19 17.584 155.793 17.584C154.242 17.4284 153 18.2065 153 20.385ZM152.69 38.1248C152.069 38.4361 151.604 39.0585 151.604 39.681C151.604 40.9259 152.845 42.3264 156.104 42.3264C159.362 42.3264 160.448 41.3927 160.448 40.1478C160.604 37.8136 156.414 38.9029 152.69 38.1248ZM166.966 18.9845C167.121 19.4514 167.121 19.9182 167.121 20.385C167.121 26.2983 162 29.4106 156.104 29.4106C156.104 29.4106 153.311 29.4106 153.311 30.4998C153.311 31.2779 153.776 31.7447 159.052 31.9004C165.414 32.056 169.138 34.2345 169.138 39.3697C169.138 44.3493 165.724 48.8621 156.259 48.8621C146.638 48.8621 143.535 44.505 143.535 39.8366C143.535 37.0356 144.931 35.3238 146.948 34.2345C146.483 33.3009 146.328 32.3672 146.328 30.9667C146.328 29.2549 147.104 28.01 148.035 27.232C145.862 25.6759 144.311 23.3417 144.311 20.385C144.311 14.3162 150.207 11.5151 156.104 11.5151C158.586 11.5151 160.914 11.982 162.776 13.0713L168.207 12.4488L168.673 18.8289L166.966 18.9845Z" fill="white"/>
<path d="M171.621 35.9467L171.156 29.5666L173.638 29.2553V18.9849L171.311 18.6737L171.776 12.4492H182.483V29.7222L184.966 30.0334L184.5 35.9467H171.621Z" fill="white"/>
<path d="M205.138 18.9849L202.965 18.6737L203.276 12.4492H213.983V29.7222L216.465 30.0334L216.155 35.9467H206.379L205.759 34.7018H205.448C205.448 34.7018 203.431 36.8804 198.31 36.8804C192.569 36.8804 189.621 33.3013 189.621 27.5436V18.9849L187.448 18.6737L187.759 12.4492H198.465V25.9875C198.465 27.8548 198.931 29.7222 201.414 29.7222C203.586 29.7222 205.138 28.4773 205.138 28.4773V18.9849Z" fill="white"/>
<path d="M249.517 35.9466V21.0078C249.517 18.8293 248.897 18.518 247.19 18.518C246.103 18.518 245.172 19.1405 244.862 19.2961V29.5665L247.345 29.8777L246.879 35.791H235.862V20.8522C235.862 18.6736 235.241 18.3624 233.534 18.3624C232.293 18.3624 231.362 19.1405 231.052 19.1405V29.4109L233.534 29.7221L233.069 35.6354H220.034L219.724 29.4109L222.207 29.0997V18.8293L220.034 18.518L220.5 12.2935H230.121L230.586 13.5384H230.897C230.897 13.5384 232.603 11.3599 236.793 11.3599C239.586 11.3599 241.759 12.1379 243 13.5384H243.31C243.31 13.5384 245.483 11.3599 250.448 11.3599C256.034 11.3599 258.517 13.8497 258.517 19.4517V29.5665L261 29.8777L260.534 35.791H249.517V35.9466Z" fill="white"/>
<path d="M181.241 4.35714C181.241 6.69133 179.224 8.71429 176.896 8.71429C174.569 8.71429 172.552 6.69133 172.552 4.35714C172.552 2.02296 174.569 0 176.896 0C179.379 0 181.241 1.86735 181.241 4.35714Z" fill="white"/>
<path fill-rule="evenodd" clip-rule="evenodd" d="M14.8966 50.8851V43.8826H12.1034L11.4828 44.6606C10.5517 44.0382 9.46552 43.5713 8.06896 43.5713C3.56896 43.5713 0 46.9948 0 51.9744C0 56.954 2.48276 60.9999 8.84483 60.9999C13.9655 60.9999 16.1379 57.8877 16.1379 57.8877L14.2759 54.7754C14.2759 54.7754 12.1034 57.1096 9.46552 57.1096C6.67241 57.1096 5.27586 54.931 5.27586 51.9744C5.27586 48.8622 6.82759 47.306 9 47.306C9.93103 47.306 10.5517 47.6173 10.8621 47.9285L11.1724 50.7295H14.8966V50.8851ZM24.0517 57.7321C22.3448 57.7321 21.8793 56.3316 21.8793 54.153C21.8793 51.9744 22.3448 50.7295 24.0517 50.7295C25.7586 50.7295 26.2241 51.9744 26.2241 54.153C26.2241 56.3316 25.7586 57.7321 24.0517 57.7321ZM24.0517 60.9999C28.3965 60.9999 31.1897 58.1989 31.1897 53.9974C31.1897 49.7958 28.5517 47.306 24.0517 47.306C19.5517 47.306 16.9138 49.7958 16.9138 53.9974C16.9138 58.1989 19.3965 60.9999 24.0517 60.9999ZM39.8793 60.3775L40.0345 57.2652L38.7931 57.1096V51.9744C38.7931 51.9744 39.569 51.352 40.8103 51.352C42.2069 51.352 42.3621 51.6632 42.3621 52.7525V60.5331H48.2586L48.4138 57.4208L47.0172 57.2652V51.9744C47.0172 48.8622 45.4655 47.4616 42.3621 47.4616C39.569 47.4616 38.4828 48.7065 38.4828 48.7065H38.3276L38.0172 48.0841H32.8965L32.7414 51.5076L33.9828 51.6632V57.1096L32.7414 57.2652L32.8965 60.6887H39.8793V60.3775ZM61.2931 45.9055V41.2372H58.6552L58.3448 41.8596C57.7241 41.5484 56.9483 41.0815 55.8621 41.0815C52.6034 41.0815 51.0517 43.2601 51.0517 45.9055V47.9285L49.6552 48.0841V51.5076H51.2069V56.954L49.8103 57.1096L49.9655 60.3775H56.9483L57.1034 57.2652L55.7069 57.1096V51.352H59.1207V47.7729H55.7069V46.2168C55.7069 44.8162 56.0172 44.3494 56.7931 44.3494C57.1034 44.3494 57.4138 44.505 57.569 44.6606L57.7241 45.7499H61.2931V45.9055ZM67.1896 50.5739C68.431 50.5739 68.8965 51.352 68.8965 51.9744C68.8965 52.13 68.8965 52.4412 68.8965 52.4412H65.3276C65.4827 51.1963 65.9483 50.5739 67.1896 50.5739ZM72.6207 55.7091C72.6207 55.7091 73.2414 54.6198 73.2414 53.0637C73.2414 49.4846 71.2241 47.306 67.1896 47.306C63.4655 47.306 60.5172 49.4846 60.5172 53.9974C60.5172 58.6657 63.3103 60.8443 67.8103 60.8443C71.3793 60.8443 72.931 58.5101 72.931 58.5101L70.7586 56.1759C70.7586 56.1759 69.5172 57.4208 67.9655 57.4208C66.569 57.4208 65.6379 56.954 65.3276 55.5535H72.6207V55.7091ZM82.3965 60.3775L82.5517 57.2652L80.6896 57.1096V51.9744C80.6896 51.8188 81 51.0407 82.2414 51.0407L82.3965 52.9081H85.8103V47.7729C85.8103 47.7729 84.8793 47.1504 83.1724 47.1504C81 47.1504 80.2241 48.8622 80.2241 48.8622H80.069L79.6034 47.6173H74.6379L74.4827 51.0407L76.0345 51.352V56.7984L74.7931 56.954L74.9483 60.3775H82.3965ZM94.0345 50.5739C95.2758 50.5739 95.7414 51.352 95.7414 51.9744C95.7414 52.13 95.7414 52.4412 95.7414 52.4412H92.1724C92.3276 51.1963 92.9483 50.5739 94.0345 50.5739ZM99.4655 55.7091C99.4655 55.7091 100.086 54.6198 100.086 53.0637C100.086 49.4846 98.069 47.306 94.0345 47.306C90.3103 47.306 87.3621 49.4846 87.3621 53.9974C87.3621 58.6657 90.1552 60.8443 94.6552 60.8443C98.2241 60.8443 99.7759 58.5101 99.7759 58.5101L97.6034 56.1759C97.6034 56.1759 96.3621 57.4208 94.8103 57.4208C93.4138 57.4208 92.4827 56.954 92.1724 55.5535H99.4655V55.7091ZM108.776 60.3775L108.931 57.2652L107.534 57.1096V51.9744C107.534 51.9744 108.31 51.352 109.552 51.352C110.948 51.352 111.103 51.6632 111.103 52.7525V60.5331H117L117.155 57.4208L115.759 57.2652V51.9744C115.759 48.8622 114.207 47.4616 111.103 47.4616C108.31 47.4616 107.224 48.7065 107.224 48.7065H107.069V47.9285H101.948L101.793 51.352L103.034 51.5076V56.954L101.793 57.1096L101.948 60.5331H108.776V60.3775ZM130.19 53.3749V47.6173H127.241L126.931 48.2397C126.31 47.7729 125.379 47.306 124.448 47.306C120.879 47.306 118.397 49.9514 118.397 53.8418C118.397 58.0433 120.569 60.9999 125.534 60.9999C129.569 60.9999 130.965 58.3545 130.965 58.3545L128.793 56.0203C128.793 56.0203 127.397 57.5765 126 57.5765C124.293 57.5765 123.362 56.4872 123.362 53.8418C123.362 51.1963 124.138 50.7295 125.069 50.7295C125.69 50.7295 126 51.0407 126.31 51.1963L126.465 53.3749H130.19ZM138.569 50.5739C139.81 50.5739 140.276 51.352 140.276 51.9744C140.276 52.13 140.276 52.4412 140.276 52.4412H136.707C136.862 51.1963 137.483 50.5739 138.569 50.5739ZM144 55.7091C144 55.7091 144.621 54.6198 144.621 53.0637C144.621 49.4846 142.603 47.306 138.569 47.306C134.845 47.306 131.897 49.4846 131.897 53.9974C131.897 58.6657 134.69 60.8443 139.19 60.8443C142.759 60.8443 144.31 58.5101 144.31 58.5101L142.138 56.1759C142.138 56.1759 140.897 57.4208 139.345 57.4208C137.948 57.4208 137.017 56.954 136.707 55.5535H144V55.7091Z" fill="white"/>
</svg>
