<svg width="206" height="12" viewBox="0 0 206 12" fill="none" xmlns="http://www.w3.org/2000/svg">
<path d="M5.49133 4.96367L1.33567 0.352999H0.334667V11C1.25983 11 2.185 11 3.11017 11V6.268L5.35483 8.634H5.65817L7.918 6.268V11C8.84317 11 9.76833 11 10.6935 11V0.352999H9.72283L5.49133 4.96367ZM23.636 5.70683C23.636 -1.63383 12.7463 -1.63383 12.7463 5.70683C12.7463 13.0627 23.636 13.0627 23.636 5.70683ZM15.537 5.70683C15.537 1.88483 20.8605 1.88483 20.8605 5.70683C20.8605 9.55917 15.537 9.55917 15.537 5.70683ZM27.5576 7.75433C26.6325 7.75433 25.8438 7.75433 24.9338 7.75433C24.8731 12.4257 33.5181 12.3043 33.5181 7.84533C33.5181 5.19117 31.4555 4.91817 29.3473 4.69067C28.3918 4.5845 27.6031 4.41767 27.6638 3.61383C27.7548 2.355 30.6061 2.23367 30.6061 3.64417C31.5313 3.64417 32.229 3.64417 33.1845 3.64417C33.2451 -0.936168 24.9945 -0.936168 25.0855 3.64417C25.1158 5.9495 26.6325 6.73817 28.9378 6.905C29.9995 6.96567 30.8791 7.087 30.8791 7.83017C30.8791 9.07383 27.5576 9.10417 27.5576 7.75433ZM34.8746 5.69167C34.8898 9.30133 37.6198 11.1213 40.3195 11.1062C42.5793 11.1062 44.9605 9.92317 45.3548 6.92017C44.4296 6.92017 43.5955 6.92017 42.6855 6.92017C42.3973 8.05767 41.4721 8.634 40.3195 8.634C38.7118 8.61883 37.6805 7.25383 37.6805 5.69167C37.6805 3.93233 38.727 2.73417 40.3195 2.73417C41.457 2.73417 42.2608 3.2195 42.64 4.29633C43.5651 4.29633 44.3841 4.29633 45.3093 4.29633C44.8998 1.46017 42.5186 0.262 40.3195 0.262C37.6198 0.262 34.8898 2.082 34.8746 5.69167ZM57.6721 5.70683C57.6721 -1.63383 46.7825 -1.63383 46.7825 5.70683C46.7825 13.0627 57.6721 13.0627 57.6721 5.70683ZM49.5731 5.70683C49.5731 1.88483 54.8966 1.88483 54.8966 5.70683C54.8966 9.55917 49.5731 9.55917 49.5731 5.70683ZM64.9911 0.550166L63.2166 6.19217H63.1711L62.7009 4.38733L61.3359 0.383332H58.5908V0.792833L62.3218 11.1062H63.8233L65.5219 5.995H65.5674L67.2661 11.1062H68.8283L72.5138 0.792833V0.383332H69.8141L68.4643 4.38733L67.9941 6.19217H67.9486L66.1438 0.550166C65.7191 0.550166 65.4158 0.550166 64.9911 0.550166ZM80.167 7.75433C79.2419 7.75433 78.4532 7.75433 77.5432 7.75433C77.4825 12.4257 86.1275 12.3498 86.1275 7.89083C86.1275 5.23667 84.0649 4.91817 81.9567 4.69067C81.0012 4.5845 80.2125 4.41767 80.2732 3.61383C80.3642 2.355 83.2155 2.23367 83.2155 3.64417C84.1407 3.64417 84.8384 3.64417 85.7939 3.64417C85.8545 -0.936168 77.6039 -0.936168 77.6949 3.64417C77.7252 5.9495 79.2419 6.73817 81.5472 6.905C82.6089 6.96567 83.4885 7.1325 83.4885 7.87567C83.4885 9.11933 80.167 9.10417 80.167 7.75433ZM89.6832 2.81V11C90.578 11 91.4728 11 92.3677 11V2.81H94.9612C94.9612 1.991 94.9612 1.18717 94.9612 0.383332H87.0745C87.0745 1.18717 87.0745 1.991 87.0745 2.81H89.6832ZM102.794 11H105.448V10.6057L100.656 0.246832H99.4878L94.7103 10.6057V11H97.3645L97.9863 9.66533H102.172L102.794 11ZM101.277 7.32967H98.8812L100.064 4.539L101.277 7.32967ZM110.846 0.383332H106.842V11H110.846C117.762 10.9697 117.762 0.413666 110.846 0.383332ZM109.557 2.8555H110.846C114.229 2.8555 114.229 8.52783 110.846 8.52783H109.557V2.8555ZM121.254 8.61883V2.74933H122.497C122.497 1.83933 122.497 1.27817 122.497 0.383332C120.768 0.383332 119.054 0.383332 117.325 0.383332C117.325 1.27817 117.325 1.83933 117.325 2.74933H118.569V8.61883H117.219C117.219 9.51367 117.219 10.0748 117.219 11C119.024 11 120.799 11 122.603 11C122.603 10.0748 122.603 9.51367 122.603 8.61883H121.254ZM128.489 8.70983C127.7 8.70983 126.866 8.28517 126.866 7.42067V0.383332C126.017 0.383332 125.122 0.383332 124.273 0.383332V7.46617C124.273 9.80183 126.32 11.1517 128.489 11.1517C130.673 11.1517 132.72 9.80183 132.72 7.46617V0.383332C131.871 0.383332 130.961 0.383332 130.097 0.383332V7.42067C130.097 8.28517 129.278 8.70983 128.489 8.70983ZM140.466 4.96367L136.31 0.352999H135.309V11C136.234 11 137.159 11 138.085 11V6.268L140.329 8.634H140.633L142.892 6.268V11C143.818 11 144.743 11 145.668 11V0.352999H144.697L140.466 4.96367ZM158.723 7.55717C158.723 6.61683 158.723 6.0405 158.723 5.1305H155.31V2.81H159.162C159.162 1.9 159.162 1.27817 159.162 0.383332C156.994 0.383332 154.719 0.383332 152.55 0.383332V11C153.475 11 154.4 11 155.31 11V7.55717H158.723ZM171.496 5.70683C171.496 -1.63383 160.607 -1.63383 160.607 5.70683C160.607 13.0627 171.496 13.0627 171.496 5.70683ZM163.397 5.70683C163.397 1.88483 168.721 1.88483 168.721 5.70683C168.721 9.55917 163.397 9.55917 163.397 5.70683ZM180.423 7.23867C183.107 5.41867 182.349 0.398499 178.178 0.383332C176.631 0.383332 175.054 0.383332 173.522 0.383332C173.522 3.93233 173.522 7.46617 173.522 11C174.402 11 175.327 11 176.237 11V7.87567H177.647L179.467 11H182.501V10.6057L180.423 7.23867ZM178.178 5.46417H176.237C176.237 4.61483 176.237 3.6745 176.237 2.81C176.874 2.81 177.541 2.79483 178.178 2.81C179.725 2.82517 179.649 5.46417 178.178 5.46417ZM188.252 8.70983C187.463 8.70983 186.629 8.28517 186.629 7.42067V0.383332C185.78 0.383332 184.885 0.383332 184.036 0.383332V7.46617C184.036 9.80183 186.083 11.1517 188.252 11.1517C190.436 11.1517 192.453 9.80183 192.453 7.46617V0.383332C191.604 0.383332 190.724 0.383332 189.86 0.383332V7.42067C189.86 8.28517 189.041 8.70983 188.252 8.70983ZM200.229 4.96367L196.073 0.352999H195.072V11C195.997 11 196.923 11 197.848 11V6.268L200.092 8.634H200.396L202.656 6.268V11C203.581 11 204.506 11 205.431 11V0.352999H204.46L200.229 4.96367Z" fill="white"/>
</svg>
