<svg width="742" height="79" viewBox="0 0 742 79" fill="none" xmlns="http://www.w3.org/2000/svg">
<path d="M18.26 15.09L5.93 1.41H2.96V33C5.705 33 8.45 33 11.195 33V18.96L17.855 25.98H18.755L25.46 18.96V33C28.205 33 30.95 33 33.695 33V1.41H30.815L18.26 15.09ZM72.0958 17.295C72.0958 -4.485 39.7858 -4.485 39.7858 17.295C39.7858 39.12 72.0958 39.12 72.0958 17.295ZM48.0658 17.295C48.0658 5.955 63.8608 5.955 63.8608 17.295C63.8608 28.725 48.0658 28.725 48.0658 17.295ZM83.7315 23.37C80.9865 23.37 78.6465 23.37 75.9465 23.37C75.7665 37.23 101.416 36.87 101.416 23.64C101.416 15.765 95.2965 14.955 89.0415 14.28C86.2065 13.965 83.8665 13.47 84.0465 11.085C84.3165 7.35 92.7765 6.99 92.7765 11.175C95.5215 11.175 97.5915 11.175 100.426 11.175C100.606 -2.415 76.1265 -2.415 76.3965 11.175C76.4865 18.015 80.9865 20.355 87.8265 20.85C90.9765 21.03 93.5865 21.39 93.5865 23.595C93.5865 27.285 83.7315 27.375 83.7315 23.37ZM105.441 17.25C105.486 27.96 113.586 33.36 121.596 33.315C128.301 33.315 135.366 29.805 136.536 20.895C133.791 20.895 131.316 20.895 128.616 20.895C127.761 24.27 125.016 25.98 121.596 25.98C116.826 25.935 113.766 21.885 113.766 17.25C113.766 12.03 116.871 8.475 121.596 8.475C124.971 8.475 127.356 9.915 128.481 13.11C131.226 13.11 133.656 13.11 136.401 13.11C135.186 4.695 128.121 1.14 121.596 1.14C113.586 1.14 105.486 6.54 105.441 17.25ZM173.082 17.295C173.082 -4.485 140.772 -4.485 140.772 17.295C140.772 39.12 173.082 39.12 173.082 17.295ZM149.052 17.295C149.052 5.955 164.847 5.955 164.847 17.295C164.847 28.725 149.052 28.725 149.052 17.295ZM194.798 1.995L189.533 18.735H189.398L188.003 13.38L183.953 1.5H175.808V2.715L186.878 33.315H191.333L196.373 18.15H196.508L201.548 33.315H206.183L217.118 2.715V1.5H209.108L205.103 13.38L203.708 18.735H203.573L198.218 1.995C196.958 1.995 196.058 1.995 194.798 1.995ZM8.585 68.37C5.84 68.37 3.5 68.37 0.8 68.37C0.62 82.23 26.27 82.005 26.27 68.775C26.27 60.9 20.15 59.955 13.895 59.28C11.06 58.965 8.72 58.47 8.9 56.085C9.17 52.35 17.63 51.99 17.63 56.175C20.375 56.175 22.445 56.175 25.28 56.175C25.46 42.585 0.98 42.585 1.25 56.175C1.34 63.015 5.84 65.355 12.68 65.85C15.83 66.03 18.44 66.525 18.44 68.73C18.44 72.42 8.585 72.375 8.585 68.37ZM36.8197 53.7V78C39.4747 78 42.1297 78 44.7847 78V53.7H52.4797C52.4797 51.27 52.4797 48.885 52.4797 46.5H29.0797C29.0797 48.885 29.0797 51.27 29.0797 53.7H36.8197ZM75.7204 78H83.5954V76.83L69.3754 46.095H65.9104L51.7354 76.83V78H59.6104L61.4554 74.04H73.8754L75.7204 78ZM71.2204 67.11H64.1104L67.6204 58.83L71.2204 67.11ZM99.6116 46.5H87.7316V78H99.6116C120.132 77.91 120.132 46.59 99.6116 46.5ZM95.7866 53.835H99.6116C109.647 53.835 109.647 70.665 99.6116 70.665H95.7866V53.835ZM130.49 70.935V53.52H134.18C134.18 50.82 134.18 49.155 134.18 46.5C129.05 46.5 123.965 46.5 118.835 46.5C118.835 49.155 118.835 50.82 118.835 53.52H122.525V70.935H118.52C118.52 73.59 118.52 75.255 118.52 78C123.875 78 129.14 78 134.495 78C134.495 75.255 134.495 73.59 134.495 70.935H130.49ZM151.958 71.205C149.618 71.205 147.143 69.945 147.143 67.38V46.5C144.623 46.5 141.968 46.5 139.448 46.5V67.515C139.448 74.445 145.523 78.45 151.958 78.45C158.438 78.45 164.513 74.445 164.513 67.515V46.5C161.993 46.5 159.293 46.5 156.728 46.5V67.38C156.728 69.945 154.298 71.205 151.958 71.205ZM187.493 60.09L175.163 46.41H172.193V78C174.938 78 177.683 78 180.428 78V63.96L187.088 70.98H187.988L194.693 63.96V78C197.438 78 200.183 78 202.928 78V46.41H200.048L187.493 60.09ZM243.372 54.42C243.642 48.66 239.142 45.96 233.652 45.96C223.752 45.96 221.052 55.185 225.597 60.18C218.082 65.58 220.782 78.54 233.652 78.54C240.492 78.54 244.767 74.76 244.767 67.74V64.23H247.557C247.557 61.89 247.557 59.595 247.557 57.255C244.272 57.255 240.987 57.255 237.747 57.255V67.74C237.747 70.215 235.992 71.745 233.652 71.745C228.252 71.745 228.252 63.96 233.652 63.96H235.092C235.092 61.755 235.092 59.55 235.092 57.39H233.742C230.097 57.39 230.187 52.62 233.652 52.62C235.407 52.62 236.262 53.295 236.262 54.42C238.647 54.42 240.987 54.42 243.372 54.42ZM285.032 78H292.907V76.83L278.687 46.095H275.222L261.047 76.83V78H268.922L270.767 74.04H283.187L285.032 78ZM280.577 67.155H273.377L276.932 58.875L280.577 67.155ZM317.473 66.84C325.438 61.44 323.188 46.545 310.813 46.5C306.223 46.5 301.543 46.5 296.998 46.5C296.998 57.03 296.998 67.515 296.998 78C299.608 78 302.353 78 305.053 78V68.73H309.238L314.638 78H323.638V76.83L317.473 66.84ZM310.813 61.485H305.053C305.053 58.965 305.053 56.265 305.053 53.7C306.943 53.7 308.923 53.655 310.813 53.7C315.403 53.745 315.178 61.485 310.813 61.485ZM348.173 46.5C340.793 46.5 335.798 46.5 328.508 46.5C328.508 56.94 328.508 67.47 328.508 78C335.798 78 341.198 78 348.578 78C348.578 75.615 348.578 73.185 348.578 70.845C343.853 70.845 341.153 70.845 336.518 70.845C336.518 68.955 336.518 67.155 336.518 65.31H347.228C347.228 62.925 347.228 60.54 347.228 58.155H336.518V53.7C341.153 53.7 343.493 53.7 348.173 53.7C348.173 51.27 348.173 48.84 348.173 46.5ZM379.7 78.045H382.58V46.5C379.835 46.5 377.09 46.5 374.345 46.5V61.935L358.415 46.365H355.49V78C358.235 78 361.025 78 363.815 78V62.52L379.7 78.045ZM410.628 78H418.503V76.83L404.283 46.095H400.818L386.643 76.83V78H394.518L396.363 74.04H408.783L410.628 78ZM406.128 67.11H399.018L402.528 58.83L406.128 67.11ZM455.056 78H462.931V76.83L448.711 46.095H445.246L431.071 76.83V78H438.946L440.791 74.04H453.211L455.056 78ZM450.601 67.155H443.401L446.956 58.875L450.601 67.155ZM481.321 46.995L476.056 63.735H475.921L474.526 58.38L470.476 46.5H462.331V47.715L473.401 78.315H477.856L482.896 63.15H483.031L488.071 78.315H492.706L503.641 47.715V46.5H495.631L491.626 58.38L490.231 63.735H490.096L484.741 46.995C483.481 46.995 482.581 46.995 481.321 46.995ZM526.995 78H534.87V76.83L520.65 46.095H517.185L503.01 76.83V78H510.885L512.73 74.04H525.15L526.995 78ZM522.495 67.11H515.385L518.895 58.83L522.495 67.11ZM559.436 66.84C567.401 61.44 565.151 46.545 552.776 46.5C548.186 46.5 543.506 46.5 538.961 46.5C538.961 57.03 538.961 67.515 538.961 78C541.571 78 544.316 78 547.016 78V68.73H551.201L556.601 78H565.601V76.83L559.436 66.84ZM552.776 61.485H547.016C547.016 58.965 547.016 56.265 547.016 53.7C548.906 53.7 550.886 53.655 552.776 53.7C557.366 53.745 557.141 61.485 552.776 61.485ZM582.351 46.5H570.471V78H582.351C602.871 77.91 602.871 46.59 582.351 46.5ZM578.526 53.835H582.351C592.386 53.835 592.386 70.665 582.351 70.665H578.526V53.835ZM609.449 68.37C606.704 68.37 604.364 68.37 601.664 68.37C601.484 82.23 627.134 81.87 627.134 68.64C627.134 60.765 621.014 59.955 614.759 59.28C611.924 58.965 609.584 58.47 609.764 56.085C610.034 52.35 618.494 51.99 618.494 56.175C621.239 56.175 623.309 56.175 626.144 56.175C626.324 42.585 601.844 42.585 602.114 56.175C602.204 63.015 606.704 65.355 613.544 65.85C616.694 66.03 619.304 66.39 619.304 68.595C619.304 72.285 609.449 72.375 609.449 68.37ZM654.397 59.46L642.562 76.785V78H664.702C664.702 75.255 664.702 73.545 664.702 70.8H655.342L661.687 61.98C666.367 54.735 662.407 45.78 653.362 46.005C647.782 46.14 643.192 49.47 643.282 56.265C645.892 56.265 647.467 56.265 650.122 56.265C650.122 54.06 651.427 53.205 653.227 53.205C657.187 53.205 655.972 57.345 654.397 59.46ZM681.3 45.915C674.91 45.915 669.555 49.875 669.555 56.76C669.555 60.27 669.555 64.275 669.555 67.785C669.555 74.67 674.91 78.63 681.3 78.63C687.825 78.63 693.135 74.67 693.135 67.785C693.135 64.275 693.135 60.27 693.135 56.76C693.135 49.875 687.825 45.915 681.3 45.915ZM681.3 71.475C679.005 71.475 677.205 70.17 677.205 67.605C677.205 64.23 677.205 60.315 677.205 56.895C677.205 54.42 679.005 53.115 681.3 53.115C683.685 53.115 685.53 54.42 685.53 56.895C685.53 60.315 685.53 64.23 685.53 67.605C685.53 70.17 683.685 71.475 681.3 71.475ZM702.346 53.025V71.43H697.666V78H714.946V71.43H710.176V46.5H698.071V53.025H702.346ZM737.875 60.09C742.42 55.14 739.72 45.96 729.91 45.96C720.1 45.96 717.355 55.05 721.945 60.045C714.43 65.445 717.085 78.54 729.91 78.54C742.645 78.54 745.3 65.535 737.875 60.09ZM729.91 71.745C724.51 71.745 724.51 63.915 729.91 63.915C735.355 63.915 735.355 71.745 729.91 71.745ZM729.91 57.345C725.995 57.345 725.995 52.305 729.91 52.305C733.78 52.305 733.78 57.345 729.91 57.345Z" fill="#82FCFC"/>
</svg>
