<svg width="203" height="37" viewBox="0 0 203 37" fill="none" xmlns="http://www.w3.org/2000/svg">
<path d="M0.177448 12.4188C0.00479588 12.3199 -0.0491578 12.1661 0.0479588 11.9683L1.13782 9.64957C1.21336 9.47375 1.36443 9.39682 1.55866 9.5177C2.45429 10.0781 3.54416 10.6825 4.92537 10.6825C5.49728 10.6825 5.88574 10.5617 6.11235 10.3858C6.43607 10.1551 6.49002 9.82539 6.49002 9.62759C6.49002 8.94627 5.79942 8.6166 4.88221 8.3199C3.87867 7.99023 2.58378 7.70452 1.61261 6.97924C0.749356 6.3199 0.145075 5.46276 0.145075 3.90232C0.134285 2.73748 0.630658 1.70451 1.61261 1.00122C2.45429 0.374844 3.69523 0.012207 5.25988 0.012207C7.48277 0.012207 8.79924 0.616603 9.61934 1.04517C9.79199 1.14408 9.82436 1.3199 9.74882 1.49572L8.65896 3.80342C8.56184 3.97924 8.41077 4.03419 8.23812 3.93528C7.39645 3.46276 6.34974 2.95726 5.06565 2.95726C4.64481 2.95726 4.32109 3.03419 4.10527 3.13309C3.81392 3.28693 3.68443 3.50671 3.68443 3.73748C3.68443 4.34188 4.33188 4.6166 5.2383 4.89133C6.30658 5.221 7.74175 5.5177 8.75608 6.30891C9.59775 6.95726 10.1697 7.90232 10.1697 9.35287C10.1697 10.6715 9.59775 11.7265 8.68054 12.4628C7.74175 13.232 6.42528 13.6386 4.95774 13.6386C2.7888 13.6386 1.19178 13.0122 0.177448 12.4188Z" fill="white"/>
<path d="M17.9174 0.186523C18.9857 0.186523 20.1403 0.395315 21.0899 1.21949C22.0826 2.05466 22.7193 3.38433 22.7193 4.95575C22.7193 6.59312 22.0287 7.95575 20.9604 8.79092C20.0432 9.52718 19.0289 9.72499 18.0145 9.72499H15.3816V13.0986C15.3816 13.2964 15.2305 13.4503 15.0363 13.4503H12.3602C12.166 13.4503 12.0149 13.2964 12.0149 13.0986V0.538172C12.0149 0.34037 12.166 0.186523 12.3602 0.186523H17.9174V0.186523ZM18.6188 3.47224C18.2951 3.26345 17.8958 3.17553 17.4858 3.17553H15.36V6.714H17.4858C17.885 6.714 18.2843 6.63707 18.5972 6.43927C19.0181 6.18652 19.2878 5.714 19.2878 4.94477C19.2878 4.19751 19.0289 3.72498 18.6188 3.47224Z" fill="white"/>
<path d="M31.1035 13.6371C27.316 13.6371 24.0464 10.9558 24.0464 6.84591C24.0464 2.70305 27.316 0.0107422 31.1035 0.0107422C34.8695 0.0107422 38.1391 2.69206 38.1391 6.84591C38.1391 11.0107 34.8695 13.6371 31.1035 13.6371ZM31.1035 3.21953C29.0749 3.21953 27.6289 4.73602 27.6289 6.84591C27.6289 8.9558 29.0749 10.4503 31.1035 10.4503C33.1322 10.4503 34.5673 8.9558 34.5673 6.84591C34.5673 4.73602 33.1322 3.21953 31.1035 3.21953Z" fill="white"/>
<path d="M48.8329 8.48323L51.3148 12.8459C51.4659 13.1206 51.509 13.4503 51.1206 13.4503H48.1747C47.8725 13.4503 47.6783 13.3953 47.5272 13.0986L45.477 9.13158H43.4268V13.0986C43.4268 13.2964 43.2757 13.4503 43.0815 13.4503H40.4054C40.2111 13.4503 40.0601 13.2964 40.0601 13.0986V0.538172C40.0601 0.34037 40.2111 0.186523 40.4054 0.186523H46.2C47.4841 0.186523 48.6819 0.461249 49.5451 1.14257C50.5163 1.92279 51.0558 3.23048 51.0558 4.62608C51.0558 5.79092 50.6566 6.96674 49.6206 7.90081C49.3617 8.13158 49.0919 8.32938 48.8329 8.48323ZM43.4376 3.08762V6.24147H45.6928C46.2863 6.24147 46.7395 6.16455 47.0525 5.94477C47.4193 5.714 47.6459 5.26345 47.6459 4.65905C47.6459 4.07663 47.4517 3.67004 47.1064 3.41729C46.8043 3.18652 46.3834 3.08762 45.9734 3.08762H43.4376V3.08762Z" fill="white"/>
<path d="M63.0551 0.186523C63.2493 0.186523 63.4004 0.34037 63.4004 0.538172V2.86784C63.4004 3.06564 63.2493 3.21949 63.0551 3.21949H59.3862V13.0876C59.3862 13.2854 59.2352 13.4393 59.0409 13.4393H56.3648C56.1706 13.4393 56.0195 13.2854 56.0195 13.0876V3.21949H52.3507C52.1564 3.21949 52.0054 3.06564 52.0054 2.86784V0.538172C52.0054 0.34037 52.1564 0.186523 52.3507 0.186523H63.0551V0.186523Z" fill="white"/>
<path d="M72.8207 0.186523C73.015 0.186523 73.166 0.34037 73.166 0.538172V13.0986C73.166 13.2964 73.015 13.4503 72.8207 13.4503H70.1446C69.9504 13.4503 69.7993 13.2964 69.7993 13.0986V0.538172C69.7993 0.34037 69.9504 0.186523 70.1446 0.186523H72.8207V0.186523Z" fill="white"/>
<path d="M84.1725 0.538172C84.1725 0.34037 84.3236 0.186523 84.5178 0.186523H87.0429C87.2371 0.186523 87.3882 0.34037 87.3882 0.538172V13.0986C87.3882 13.2964 87.2371 13.4503 87.0429 13.4503H84.7121C84.4423 13.4503 84.2912 13.3953 84.097 13.0986L78.8203 5.9118V13.0986C78.8203 13.2964 78.6693 13.4503 78.475 13.4503H75.9608C75.7666 13.4503 75.6155 13.2964 75.6155 13.0986V0.538172C75.6155 0.34037 75.7666 0.186523 75.9608 0.186523H78.3132C78.5829 0.186523 78.7124 0.263447 78.9282 0.538172L84.1833 7.72498V0.538172H84.1725Z" fill="white"/>
<path d="M98.4055 0.538172C98.4055 0.34037 98.5566 0.186523 98.7508 0.186523H101.276C101.47 0.186523 101.621 0.34037 101.621 0.538172V13.0986C101.621 13.2964 101.47 13.4503 101.276 13.4503H98.945C98.6753 13.4503 98.5242 13.3953 98.33 13.0986L93.0533 5.9118V13.0986C93.0533 13.2964 92.9022 13.4503 92.708 13.4503H90.183C89.9887 13.4503 89.8376 13.2964 89.8376 13.0986V0.538172C89.8376 0.34037 89.9887 0.186523 90.183 0.186523H92.5353C92.8051 0.186523 92.9346 0.263447 93.1504 0.538172L98.4055 7.72498V0.538172Z" fill="white"/>
<path d="M110.599 13.6371C106.811 13.6371 103.542 10.9558 103.542 6.84591C103.542 2.69206 106.811 0.0107422 110.599 0.0107422C114.365 0.0107422 117.634 2.69206 117.634 6.84591C117.634 11.0107 114.365 13.6371 110.599 13.6371ZM110.599 3.21953C108.57 3.21953 107.124 4.73602 107.124 6.84591C107.124 8.9558 108.57 10.4503 110.599 10.4503C112.628 10.4503 114.063 8.9558 114.063 6.84591C114.063 4.73602 112.628 3.21953 110.599 3.21953Z" fill="white"/>
<path d="M126.925 13.1536C126.828 13.4063 126.677 13.5052 126.386 13.5052H123.559C123.267 13.5052 123.116 13.4063 123.019 13.1536L118.433 0.67004C118.314 0.395315 118.39 0.186523 118.703 0.186523H121.552C121.854 0.186523 122.026 0.307403 122.124 0.571139L124.972 9.19751H125.015L127.972 0.571139C128.069 0.296414 128.242 0.186523 128.544 0.186523H131.393C131.641 0.186523 131.76 0.384326 131.663 0.67004L126.925 13.1536Z" fill="white"/>
<path d="M143.824 13.0989C143.824 13.2967 143.673 13.4505 143.478 13.4505H140.802C140.608 13.4505 140.457 13.2967 140.457 13.0989V9.67033H136.313V13.0989C136.313 13.2967 136.162 13.4505 135.968 13.4505H133.292C133.098 13.4505 132.947 13.2967 132.947 13.0989V5.43956C132.947 3.82418 133.594 2.13187 135.008 1.05494C135.849 0.417582 136.971 0 138.374 0C139.788 0 140.921 0.406593 141.763 1.05494C143.176 2.12088 143.824 3.82418 143.824 5.43956V13.0989V13.0989ZM136.982 3.69231C136.605 4.06593 136.313 4.64835 136.313 5.60439V6.63736H140.457V5.60439C140.457 4.64835 140.166 4.06593 139.788 3.69231C139.389 3.31868 138.871 3.20879 138.374 3.20879C137.899 3.20879 137.403 3.2967 136.982 3.69231Z" fill="white"/>
<path d="M156.265 0.186523C156.46 0.186523 156.611 0.34037 156.611 0.538172V2.86784C156.611 3.06564 156.46 3.21949 156.265 3.21949H152.596V13.0876C152.596 13.2854 152.445 13.4393 152.251 13.4393H149.575C149.381 13.4393 149.23 13.2854 149.23 13.0876V3.21949H145.561C145.367 3.21949 145.216 3.06564 145.216 2.86784V0.538172C145.216 0.34037 145.367 0.186523 145.561 0.186523H156.265V0.186523Z" fill="white"/>
<path d="M161.046 0.186523C161.24 0.186523 161.391 0.34037 161.391 0.538172V13.0986C161.391 13.2964 161.24 13.4503 161.046 13.4503H158.369C158.175 13.4503 158.024 13.2964 158.024 13.0986V0.538172C158.024 0.34037 158.175 0.186523 158.369 0.186523H161.046V0.186523Z" fill="white"/>
<path d="M170.38 13.6371C166.592 13.6371 163.323 10.9558 163.323 6.84591C163.323 2.70305 166.592 0.0107422 170.38 0.0107422C174.146 0.0107422 177.415 2.69206 177.415 6.84591C177.415 11.0107 174.146 13.6371 170.38 13.6371ZM170.38 3.21953C168.351 3.21953 166.905 4.73602 166.905 6.84591C166.905 8.9558 168.351 10.4503 170.38 10.4503C172.408 10.4503 173.843 8.9558 173.843 6.84591C173.843 4.73602 172.408 3.21953 170.38 3.21953Z" fill="white"/>
<path d="M187.904 0.538172C187.904 0.34037 188.055 0.186523 188.249 0.186523H190.774C190.968 0.186523 191.119 0.34037 191.119 0.538172V13.0986C191.119 13.2964 190.968 13.4503 190.774 13.4503H188.443C188.174 13.4503 188.022 13.3953 187.828 13.0986L182.552 5.9118V13.0986C182.552 13.2964 182.401 13.4503 182.206 13.4503H179.681C179.487 13.4503 179.336 13.2964 179.336 13.0986V0.538172C179.336 0.34037 179.487 0.186523 179.681 0.186523H182.034C182.303 0.186523 182.433 0.263447 182.649 0.538172L187.904 7.72498V0.538172Z" fill="white"/>
<path d="M193.008 12.4173C192.835 12.3184 192.781 12.1646 192.878 11.9668L193.968 9.6481C194.044 9.47228 194.195 9.39536 194.389 9.51624C195.285 10.0767 196.374 10.6811 197.756 10.6811C198.328 10.6811 198.716 10.5602 198.943 10.3844C199.266 10.1536 199.32 9.82393 199.32 9.62613C199.32 8.94481 198.63 8.61514 197.713 8.31843C196.72 7.98876 195.414 7.69206 194.443 6.97777C193.58 6.31843 192.975 5.46129 192.975 3.90085C192.975 2.73602 193.472 1.70305 194.443 0.999753C195.285 0.37338 196.526 0.0107422 198.09 0.0107422C200.313 0.0107422 201.63 0.615138 202.45 1.04371C202.622 1.14261 202.655 1.31843 202.579 1.49426L201.489 3.81294C201.392 3.98876 201.241 4.04371 201.068 3.94481C200.227 3.47228 199.18 2.96679 197.896 2.96679C197.475 2.96679 197.151 3.04371 196.936 3.14261C196.644 3.29646 196.515 3.51624 196.515 3.74701C196.515 4.3514 197.162 4.62613 198.069 4.90085C199.137 5.23052 200.572 5.52723 201.586 6.31843C202.428 6.9558 203 7.90085 203 9.3514C203 10.6701 202.428 11.725 201.511 12.4613C200.572 13.2195 199.256 13.6261 197.788 13.6261C195.63 13.6371 194.022 13.0107 193.008 12.4173Z" fill="white"/>
<path d="M11.5834 36.4617C11.5834 36.6595 11.4323 36.8133 11.238 36.8133H8.56195C8.36772 36.8133 8.21665 36.6595 8.21665 36.4617V33.0331H4.07301V36.4617C4.07301 36.6595 3.92194 36.8133 3.7277 36.8133H1.0516C0.857369 36.8133 0.706299 36.6595 0.706299 36.4617V28.8024C0.706299 27.187 1.35374 25.4947 2.76733 24.4177C3.609 23.7804 4.73124 23.3628 6.13404 23.3628C7.54762 23.3628 8.68065 23.7694 9.52232 24.4177C10.9359 25.4837 11.5834 27.187 11.5834 28.8024V36.4617ZM4.74203 27.0551C4.36436 27.4287 4.07301 28.0111 4.07301 28.9672V30.0002H8.21665V28.9672C8.21665 28.0111 7.9253 27.4287 7.54762 27.0551C7.14836 26.6815 6.63041 26.5716 6.13404 26.5716C5.65924 26.5716 5.16287 26.6595 4.74203 27.0551Z" fill="white"/>
<path d="M27.9527 23.901C27.9527 23.7032 28.1038 23.5493 28.298 23.5493H30.9741C31.1683 23.5493 31.3194 23.7032 31.3194 23.901V32.0438C31.3194 33.7361 30.7799 34.9229 29.9382 35.7032C28.9455 36.6152 27.5534 36.9889 26.1507 36.9889C25.5248 36.9889 24.8342 36.912 24.1867 36.6922C23.6472 36.5163 23.14 36.2196 22.6545 35.7911C22.1797 36.2196 21.6617 36.5163 21.1222 36.6922C20.4747 36.901 19.7841 36.9889 19.1583 36.9889C17.7663 36.9889 16.3635 36.6152 15.3707 35.7032C14.529 34.9229 13.9895 33.7361 13.9895 32.0438V23.901C13.9895 23.7032 14.1406 23.5493 14.3348 23.5493H17.0109C17.2051 23.5493 17.3562 23.7032 17.3562 23.901V31.9779C17.3562 32.6372 17.5504 33.0878 17.8526 33.3845C18.1979 33.7142 18.6727 33.835 19.1475 33.835C19.8705 33.835 20.3345 33.6372 20.6042 33.2746C20.874 32.901 20.9711 32.3405 20.9711 31.6043V23.912C20.9711 23.7142 21.1222 23.5603 21.3164 23.5603H23.9925C24.1867 23.5603 24.3378 23.7142 24.3378 23.912V31.6043C24.3378 32.3405 24.4349 32.912 24.7047 33.2746C24.9745 33.6482 25.4277 33.835 26.1614 33.835C26.6362 33.835 27.1218 33.7142 27.4563 33.3845C27.7585 33.0878 27.9527 32.6482 27.9527 31.9779V23.901Z" fill="white"/>
<path d="M44.6029 36.4617C44.6029 36.6595 44.4518 36.8133 44.2576 36.8133H41.5815C41.3872 36.8133 41.2362 36.6595 41.2362 36.4617V33.0331H37.0925V36.4617C37.0925 36.6595 36.9415 36.8133 36.7472 36.8133H34.0711C33.8769 36.8133 33.7258 36.6595 33.7258 36.4617V28.8024C33.7258 27.187 34.3733 25.4947 35.7869 24.4177C36.6285 23.7804 37.7508 23.3628 39.1536 23.3628C40.5672 23.3628 41.7002 23.7694 42.5419 24.4177C43.9554 25.4837 44.6029 27.187 44.6029 28.8024V36.4617V36.4617ZM37.7616 27.0551C37.3839 27.4287 37.0925 28.0111 37.0925 28.9672V30.0002H41.2362V28.9672C41.2362 28.0111 40.9448 27.4287 40.5672 27.0551C40.1679 26.6815 39.6499 26.5716 39.1536 26.5716C38.6788 26.5716 38.1824 26.6595 37.7616 27.0551Z" fill="white"/>
<path d="M55.7821 31.846L58.264 36.2087C58.415 36.4834 58.4582 36.8131 58.0697 36.8131H55.1346C54.8325 36.8131 54.6383 36.7581 54.4872 36.4614L52.437 32.4944H50.3867V36.4614C50.3867 36.6592 50.2357 36.8131 50.0414 36.8131H47.3653C47.1711 36.8131 47.02 36.6592 47.02 36.4614V23.901C47.02 23.7032 47.1711 23.5493 47.3653 23.5493H53.1599C54.444 23.5493 55.6418 23.824 56.5051 24.5054C57.4762 25.2856 58.0158 26.5933 58.0158 27.9889C58.0158 29.1537 57.6165 30.3295 56.5806 31.2636C56.3216 31.4944 56.0519 31.6922 55.7821 31.846ZM50.3975 26.4504V29.6043H52.6528C53.2463 29.6043 53.6995 29.5273 54.0124 29.3076C54.3793 29.0768 54.6059 28.6262 54.6059 28.0218C54.6059 27.4394 54.4117 27.0328 54.0664 26.7801C53.7642 26.5493 53.3434 26.4504 52.9333 26.4504H50.3975V26.4504Z" fill="white"/>
<path d="M69.3784 35.857C68.0188 36.6372 66.5081 36.8131 65.0945 36.8131H60.3358C60.1416 36.8131 59.9905 36.6592 59.9905 36.4614V23.901C59.9905 23.7032 60.1416 23.5493 60.3358 23.5493H65.3427C67.2526 23.5493 69.0871 23.857 70.6733 25.5383C71.6337 26.5493 72.2811 28.0548 72.2811 30.1757C72.2811 32.4614 71.5042 34.6262 69.3784 35.857ZM63.3572 33.9229H64.8679C65.7096 33.9229 66.4757 33.8021 67.1016 33.4944C68.3965 32.868 68.8389 31.6043 68.8389 30.1647C68.8389 28.9229 68.5152 28.0438 67.9432 27.4614C67.2311 26.7251 66.1628 26.4284 64.8679 26.4284H63.3572V33.9229V33.9229Z" fill="white"/>
<path d="M87.6795 33.8463C87.8737 33.8463 88.0248 34.0002 88.0248 34.198V36.4617C88.0248 36.6595 87.8737 36.8133 87.6795 36.8133H79.4354C79.2412 36.8133 79.0901 36.6595 79.0901 36.4617V35.2749C79.0901 33.3628 79.5325 32.121 80.6224 31.0551C81.9604 29.7474 83.5898 29.4177 84.5826 28.4617C84.8847 28.154 85.0466 27.8023 85.0466 27.3518C85.0466 27.0991 84.9495 26.7474 84.7013 26.5166C84.4962 26.3188 84.1833 26.2089 83.6869 26.2089C82.7481 26.2089 81.7986 26.6155 80.7627 27.3188C80.5684 27.4397 80.3418 27.4947 80.2231 27.2419L79.2843 25.2969C79.1872 25.121 79.2304 24.9892 79.4138 24.8463C80.5037 24.121 81.8849 23.3848 83.9675 23.3848C85.3487 23.3848 86.4925 23.8903 87.2371 24.7034C87.8522 25.3628 88.1975 26.2639 88.1975 27.2529C88.1975 28.4397 87.7766 29.4507 86.9889 30.2529C85.7264 31.5386 84.3128 31.8243 83.2985 32.6485C82.8776 32.9782 82.705 33.3518 82.705 33.8573H87.6795V33.8463Z" fill="white"/>
<path d="M95.1899 36.9999C91.9635 36.9999 90.2046 34.6593 90.2046 30.1867C90.2046 25.6922 91.9635 23.3516 95.1899 23.3516C98.4163 23.3516 100.175 25.6922 100.175 30.1867C100.175 34.6702 98.4163 36.9999 95.1899 36.9999ZM96.3877 27.3076C96.1179 26.7582 95.7402 26.4944 95.1791 26.4944C94.6612 26.4944 94.2619 26.7911 93.9921 27.3076C93.6684 27.934 93.4958 28.923 93.4958 30.1867C93.4958 31.4724 93.6468 32.4505 93.9706 33.0658C94.2403 33.5933 94.618 33.868 95.1791 33.868C95.7186 33.868 96.1179 33.5933 96.3877 33.0658C96.6898 32.4395 96.8301 31.4834 96.8301 30.1867C96.8301 28.901 96.7006 27.934 96.3877 27.3076Z" fill="white"/>
<path d="M102.927 27.7913C102.625 27.8902 102.463 27.8353 102.463 27.4177V25.1979C102.463 24.9891 102.538 24.7913 102.808 24.6924L106.132 23.6045C106.358 23.5276 106.628 23.4727 106.855 23.4727H108.462C108.657 23.4727 108.808 23.6265 108.808 23.8243V33.8463H111.333C111.527 33.8463 111.678 34.0001 111.678 34.1979V36.4617C111.678 36.6595 111.527 36.8133 111.333 36.8133H102.733C102.538 36.8133 102.387 36.6595 102.387 36.4617V34.1979C102.387 34.0001 102.538 33.8463 102.733 33.8463H105.452V26.9562L102.927 27.7913Z" fill="white"/>
<path d="M123.116 33.2309C123.116 34.3958 122.598 35.4067 121.627 36.0881C120.785 36.6705 119.62 37.0002 118.131 37.0002C116.577 37.0002 115.401 36.6705 114.57 36.0881C113.61 35.4287 113.135 34.4507 113.135 33.2859C113.135 31.4507 114.225 30.4837 115.412 29.8243C114.592 29.165 113.674 28.4177 113.674 26.7914C113.674 25.7254 114.117 24.9232 114.818 24.3738C115.681 23.6705 116.901 23.3628 118.109 23.3628C119.275 23.3628 120.613 23.6925 121.53 24.4727C122.156 25.0221 122.577 25.7804 122.577 26.7914C122.577 28.5386 121.681 29.2639 120.969 29.8243C122.199 30.7144 123.116 31.4727 123.116 33.2309ZM119.178 31.8793C118.875 31.6705 118.487 31.4507 118.012 31.2199C117.494 31.4507 117.138 31.7035 116.901 31.9452C116.523 32.3188 116.437 32.6815 116.437 33.0002C116.437 33.5606 116.728 34.4617 118.12 34.4617C119.512 34.4617 119.879 33.6485 119.879 33.0002C119.89 32.5826 119.663 32.2309 119.178 31.8793ZM118.185 25.8243C117.613 25.8243 116.901 26.0331 116.901 26.7804C116.901 27.165 117.095 27.5057 117.365 27.7694C117.656 28.0441 118.012 28.2529 118.357 28.4507C118.66 28.2529 118.875 28.0661 119.027 27.8683C119.318 27.4947 119.372 27.165 119.372 26.9122C119.372 26.2309 118.821 25.8243 118.185 25.8243Z" fill="white"/>
</svg>
